<svg xmlns="http://www.w3.org/2000/svg" viewBox="0 0 100 100"><defs><style>.cls-1{fill:#fff;}</style></defs><title>hovers_gameinfo_icon</title><g id="Layer_2" data-name="Layer 2"><g id="Layer_1-2" data-name="Layer 1"><path class="cls-1" d="M50,0A50,50,0,0,0,12.2,82.71L7.78,99.23l18.57-5,.07-.16A50,50,0,1,0,50,0Zm-.36,15.43a9.71,9.71,0,0,1,9.93,9.21c0,5-3.52,9.12-9.93,9.12-5.69,0-9.75-4.78-9.75-9.12A9.47,9.47,0,0,1,49.64,15.43ZM62.64,83H37.36V71.12h3.79V49.55H37.36V37.82H58.3v33.3h4.33Z"/></g></g></svg>