<?xml version="1.0" encoding="utf-8"?>
<!-- Generator: Adobe Illustrator 26.5.0, SVG Export Plug-In . SVG Version: 6.00 Build 0)  -->
<svg version="1.1" id="Layer_1" xmlns="http://www.w3.org/2000/svg" xmlns:xlink="http://www.w3.org/1999/xlink" x="0px" y="0px"
	 viewBox="0 0 150 50" style="enable-background:new 0 0 150 50;" xml:space="preserve">
<style type="text/css">
	.st0{fill:#FFFFFF;}
</style>
<g>
	<path class="st0" d="M37.6,12.8l-9.3,24.5h6.7l1.5-4h9.1l1.5,4h6.7l-9.1-24.5H37.6z M38.6,28.1l2.4-7.3l2.7,7.3H38.6z"/>
	<path class="st0" d="M65.1,12.8H54.4v24.5h11.3c0,0,10.2-2.2,10.2-12.2C75.7,15,65.1,12.8,65.1,12.8z M63.9,32h-3.3V18h3.3
		c0,0,5.5,1,5.5,7C69.4,30.9,63.9,32,63.9,32z"/>
	<polygon class="st0" points="77.6,18 77.6,22.3 77.6,27.7 77.6,32 77.6,37.2 83.8,37.2 91.5,37.2 91.5,32 83.8,32 83.8,27.7 
		91,27.7 91,22.3 83.8,22.3 83.8,18 91.5,18 91.5,12.8 77.6,12.8 	"/>
	<polygon class="st0" points="99.4,12.8 93,12.8 93,32 93,37.2 99.4,37.2 107,37.2 107,32 99.4,32 	"/>
	<polygon class="st0" points="114.1,32 114.1,12.8 107.8,12.8 107.8,32 107.8,37.2 114.1,37.2 121.7,37.2 121.7,32 	"/>
</g>
</svg>
