<?xml version="1.0" encoding="utf-8"?>
<!-- Generator: Adobe Illustrator 25.4.1, SVG Export Plug-In . SVG Version: 6.00 Build 0)  -->
<svg version="1.1" id="Layer_1" xmlns="http://www.w3.org/2000/svg" xmlns:xlink="http://www.w3.org/1999/xlink" x="0px" y="0px"
	 viewBox="0 0 595.28 345.03" style="enable-background:new 0 0 595.28 345.03;" xml:space="preserve">
<style type="text/css">
	.st0{fill:#FFFFFF;}
</style>
<g>
	<g>
		<path class="st0" d="M293.24,150.95l2.93-2.95c0,0-0.76,0.53-7.43-5.37c-6.67-5.89-8.66-7.5-8.66-7.5s1.17,1.29,7.66,8.53
			C293.06,149.6,293.32,150.73,293.24,150.95z M305.27,143.63c5.87-6.7,7.47-8.69,7.47-8.69s-1.29,1.17-8.5,7.69
			c-5.91,5.33-7.04,5.6-7.25,5.52l2.93,2.95C299.92,151.09,299.39,150.33,305.27,143.63z M296.99,148.14l-0.05-0.05
			C296.93,148.09,296.94,148.13,296.99,148.14z M287.81,159.06c-5.87,6.7-7.48,8.69-7.48,8.69s1.29-1.17,8.5-7.68
			c5.91-5.34,7.04-5.6,7.25-5.52l-2.94-2.95C293.15,151.61,293.68,152.37,287.81,159.06z M296.09,154.55l0.05,0.05
			C296.14,154.61,296.13,154.57,296.09,154.55z M305.56,158.93c-5.31-5.93-5.57-7.07-5.49-7.28l-2.94,2.95c0,0,0.76-0.53,7.43,5.36
			c6.67,5.89,8.66,7.5,8.66,7.5S312.05,166.17,305.56,158.93z"/>
		<g>
			<path class="st0" d="M329.28,151.16c0,0-6.29-0.08-15.97-0.6c-5.49-0.29-9.27-0.68-11.52-0.96c-2.34-0.39-2.98-1.1-3.3-3.31
				c-0.32-2.38-0.76-6.34-1.1-11.57c-0.57-8.9-0.84-16.05-0.84-16.05s-0.08,6.33-0.6,16.06c-0.27,5.06-0.61,8.68-0.88,10.99
				c-0.33,2.87-0.92,3.56-3.96,3.97c-2.41,0.31-6.13,0.72-10.94,1.02c-8.87,0.57-15.96,0.84-15.96,0.84s6.28,0.08,15.97,0.6
				c5.46,0.29,9.22,0.67,11.48,0.95c2.38,0.39,3.02,1.09,3.35,3.32c0.02,0.15,0.79,6.73,1.1,11.57c0.57,8.9,0.84,16.04,0.84,16.04
				s0.08-6.33,0.59-16.06c0.3-5.71,0.7-9.59,0.98-11.81c0.36-2.18,1.13-2.78,3.85-3.15c2.41-0.31,6.14-0.72,10.95-1.03
				C322.19,151.43,329.28,151.16,329.28,151.16z"/>
		</g>
	</g>
	<g>
		<g>
			<path class="st0" d="M175.14,169.43c-0.04-0.07-0.11-0.11-0.18-0.11h-2.58c-0.08,0-0.15,0.04-0.18,0.11l-9.81,17.02
				c-0.04,0.07-0.04,0.15,0,0.21s0.11,0.11,0.18,0.11h2.64c0.08,0,0.14-0.04,0.18-0.1c0,0,1.66-2.83,1.78-3.02h13.01
				c0.11,0.2,1.77,3.02,1.77,3.02c0.04,0.06,0.11,0.1,0.18,0.1h2.66c0.08,0,0.15-0.04,0.18-0.11c0.04-0.07,0.04-0.15,0-0.21
				L175.14,169.43z M178.61,180.9h-9.88c0.33-0.57,4.6-7.97,4.93-8.54C174,172.93,178.28,180.33,178.61,180.9z"/>
		</g>
		<g>
			<path class="st0" d="M202.49,169.96c-1.46-0.42-3.62-0.64-6.42-0.64h-8.96c-0.12,0-0.21,0.09-0.21,0.21v17.02
				c0,0.12,0.09,0.21,0.21,0.21h2.32c0.12,0,0.21-0.09,0.21-0.21c0,0,0-6.73,0-7.13c0.4,0,6.41,0,6.41,0c2.82,0,4.99-0.21,6.44-0.64
				c2.64-0.75,3.97-2.23,3.97-4.41C206.47,172.2,205.13,170.71,202.49,169.96z M203.73,174.38c0,1.53-2.28,2.31-6.79,2.31
				c0,0-6.89,0-7.29,0v-4.62c0.4,0,7.11,0,7.11,0c2.36,0,4.15,0.21,5.32,0.62C203.18,173.08,203.73,173.63,203.73,174.38z"/>
		</g>
		<g>
			<path class="st0" d="M226.43,171.09c-1.77-1.17-4.34-1.76-7.65-1.76c-3.31,0-5.88,0.59-7.65,1.76c-2.12,1.43-3.19,3.78-3.19,6.97
				c0,3.2,1.07,5.55,3.19,6.98c1.76,1.15,4.34,1.73,7.65,1.73s5.89-0.58,7.65-1.72c2.12-1.44,3.19-3.79,3.19-6.99
				C229.62,174.86,228.54,172.52,226.43,171.09z M224.52,183c-1.21,0.71-3.14,1.07-5.73,1.07c-2.6,0-4.54-0.36-5.75-1.07
				c-1.56-0.9-2.35-2.56-2.35-4.94c0-2.38,0.79-4.05,2.35-4.95c1.2-0.69,3.14-1.04,5.75-1.04c2.6,0,4.52,0.36,5.73,1.07
				c1.57,0.91,2.36,2.57,2.36,4.92C226.87,180.43,226.08,182.09,224.52,183z"/>
		</g>
		<g>
			<path class="st0" d="M249.39,184.07c0,0-14.11,0-14.52,0c0-0.41,0-14.53,0-14.53c0-0.12-0.09-0.21-0.21-0.21h-2.32
				c-0.12,0-0.21,0.09-0.21,0.21v17.02c0,0.12,0.1,0.21,0.21,0.21h17.05c0.12,0,0.21-0.09,0.21-0.21v-2.28
				C249.6,184.16,249.51,184.07,249.39,184.07z"/>
		</g>
		<g>
			<path class="st0" d="M268.85,184.07c0,0-14.11,0-14.52,0c0-0.41,0-14.53,0-14.53c0-0.12-0.09-0.21-0.21-0.21h-2.32
				c-0.12,0-0.21,0.09-0.21,0.21v17.02c0,0.12,0.09,0.21,0.21,0.21h17.05c0.12,0,0.21-0.09,0.21-0.21v-2.28
				C269.06,184.16,268.97,184.07,268.85,184.07z"/>
		</g>
		<g>
			<path class="st0" d="M287.49,171.09c-1.77-1.17-4.34-1.76-7.65-1.76c-3.31,0-5.88,0.59-7.65,1.76c-2.12,1.43-3.19,3.78-3.19,6.97
				c0,3.2,1.07,5.55,3.19,6.98c1.76,1.15,4.34,1.73,7.65,1.73c3.31,0,5.89-0.58,7.65-1.72c2.12-1.44,3.19-3.79,3.19-6.99
				C290.68,174.86,289.61,172.52,287.49,171.09z M285.58,183c-1.21,0.71-3.14,1.07-5.73,1.07c-2.6,0-4.54-0.36-5.75-1.07
				c-1.56-0.9-2.35-2.56-2.35-4.94c0-2.38,0.79-4.05,2.35-4.95c1.2-0.69,3.13-1.04,5.75-1.04c2.6,0,4.52,0.36,5.73,1.07
				c1.57,0.91,2.36,2.57,2.36,4.92C287.94,180.43,287.14,182.09,285.58,183z"/>
		</g>
	</g>
	<g>
		<g>
			<path class="st0" d="M323.11,176.69h-9.73c-0.12,0-0.21,0.09-0.21,0.21v2.32c0,0.12,0.1,0.21,0.21,0.21c0,0,6.8,0,7.2,0v2.36
				c-0.71,0.92-1.78,1.57-3.17,1.92c-0.48,0.11-1.05,0.2-1.69,0.26c-0.64,0.06-1.39,0.09-2.23,0.09c-2.58,0-4.51-0.36-5.75-1.07
				c-1.56-0.9-2.35-2.56-2.35-4.94c0-2.37,0.79-4.02,2.35-4.92c1.21-0.71,3.14-1.07,5.75-1.07c1.76,0,3.15,0.14,4.12,0.41
				c1.47,0.4,2.56,1.14,3.23,2.23c0.06,0.09,0.18,0.13,0.27,0.08l2.1-1.01c0.05-0.03,0.09-0.07,0.11-0.13
				c0.02-0.06,0.01-0.12-0.02-0.17c-1.56-2.75-4.86-4.15-9.81-4.15c-3.31,0-5.88,0.59-7.65,1.76c-2.12,1.43-3.19,3.78-3.19,6.97
				c0,3.18,1.07,5.53,3.19,6.96c1.76,1.16,4.34,1.75,7.65,1.75c2.96,0,5.33-0.5,7.08-1.44c0,0.41,0,1.23,0,1.23
				c0,0.12,0.1,0.21,0.21,0.21h2.32c0.12,0,0.21-0.09,0.21-0.21v-9.66C323.32,176.78,323.23,176.69,323.11,176.69z"/>
		</g>
		<g>
			<path class="st0" d="M347.35,186.45l-9.84-17.02c-0.04-0.07-0.11-0.11-0.18-0.11h-2.58c-0.07,0-0.14,0.04-0.18,0.11l-9.81,17.02
				c-0.04,0.07-0.04,0.15,0,0.21c0.04,0.07,0.11,0.11,0.18,0.11h2.64c0.08,0,0.14-0.04,0.18-0.1c0,0,1.66-2.83,1.78-3.02h13.01
				c0.11,0.2,1.78,3.02,1.78,3.02c0.04,0.06,0.11,0.1,0.18,0.1h2.66c0.08,0,0.15-0.04,0.18-0.11
				C347.39,186.6,347.39,186.52,347.35,186.45z M340.98,180.9h-9.88c0.33-0.57,4.61-7.97,4.93-8.54
				C336.37,172.93,340.65,180.33,340.98,180.9z"/>
		</g>
		<g>
			<path class="st0" d="M370.4,169.32h-2.28c-0.07,0-0.14,0.04-0.18,0.11c0,0-7.89,13.69-8.25,14.3c-0.35-0.61-8.26-14.3-8.26-14.3
				c-0.04-0.07-0.11-0.11-0.18-0.11h-2.27c-0.12,0-0.21,0.09-0.21,0.21v17.02c0,0.12,0.09,0.21,0.21,0.21h2.32
				c0.12,0,0.21-0.09,0.21-0.21c0,0,0-10.13,0-11.51c0.71,1.22,6.71,11.62,6.71,11.62c0.04,0.07,0.11,0.11,0.18,0.11h2.56
				c0.07,0,0.14-0.04,0.18-0.11c0,0,6.01-10.4,6.71-11.62c0,1.38,0,11.51,0,11.51c0,0.12,0.1,0.21,0.21,0.21h2.32
				c0.12,0,0.21-0.09,0.21-0.21v-17.02C370.61,169.42,370.52,169.32,370.4,169.32z"/>
		</g>
		<g>
			<path class="st0" d="M391.45,172.06c0.12,0,0.21-0.09,0.21-0.21v-2.32c0-0.12-0.09-0.21-0.21-0.21H374.4
				c-0.12,0-0.21,0.09-0.21,0.21v17.02c0,0.12,0.1,0.21,0.21,0.21h17.05c0.12,0,0.21-0.09,0.21-0.21v-2.28
				c0-0.12-0.09-0.21-0.21-0.21c0,0-14.11,0-14.52,0v-4.64c0.41,0,14.52,0,14.52,0c0.12,0,0.21-0.09,0.21-0.21v-2.32
				c0-0.12-0.09-0.21-0.21-0.21c0,0-14.11,0-14.52,0v-4.62C377.34,172.06,391.45,172.06,391.45,172.06z"/>
		</g>
		<g>
			<path class="st0" d="M411.9,177.34c-1.45-0.43-3.62-0.65-6.45-0.65l-3.06-0.06c-0.82-0.04-1.47-0.09-1.94-0.15
				c-2.31-0.33-3.48-1.03-3.48-2.1c0-1.55,2.48-2.34,7.38-2.34l3.01,0.05c0.81,0.03,1.46,0.08,1.93,0.15
				c2.16,0.28,3.45,0.87,3.83,1.76c0.04,0.1,0.14,0.15,0.25,0.12l2.26-0.57c0.06-0.01,0.1-0.05,0.13-0.1
				c0.03-0.05,0.04-0.11,0.02-0.16c-0.5-1.76-2.05-2.94-4.62-3.51c-1.34-0.3-3.39-0.45-6.09-0.45c-3.01,0-5.25,0.19-6.66,0.58
				c-2.77,0.74-4.18,2.25-4.18,4.48c0,2.14,1.32,3.62,3.92,4.38c1.49,0.44,3.62,0.66,6.32,0.66l3.16,0.05
				c0.84,0.03,1.49,0.08,1.95,0.15c2.38,0.33,3.58,1.04,3.58,2.12c0,1.56-2.47,2.34-7.34,2.34l-2.94-0.05
				c-0.79-0.03-1.44-0.08-1.93-0.15c-2.19-0.27-3.51-0.84-3.92-1.71c-0.04-0.09-0.15-0.14-0.25-0.11l-2.26,0.63
				c-0.06,0.02-0.1,0.05-0.13,0.1c-0.03,0.05-0.03,0.11-0.02,0.17c0.54,1.71,2.1,2.86,4.65,3.39c1.32,0.26,3.35,0.4,6.04,0.4
				c2.96,0,5.2-0.18,6.66-0.55c2.78-0.74,4.18-2.25,4.18-4.47C415.9,179.58,414.55,178.09,411.9,177.34z"/>
		</g>
	</g>
</g>
</svg>
