<?xml version="1.0" encoding="UTF-8"?>
<svg xmlns="http://www.w3.org/2000/svg" version="1.1" viewBox="0 0 754.6 453.4">
  <defs>
    <style>
      .cls-1 {
        fill: #fff;
      }
    </style>
  </defs>
  <!-- Generator: Adobe Illustrator 28.7.7, SVG Export Plug-In . SVG Version: 1.2.0 Build 194)  -->
  <g>
    <g id="Vrstva_1">
      <g>
        <path class="cls-1" d="M232.7,208.9c4.5-5.9,6.8-13.2,6.8-21.9s-4-18.1-11.9-23.5c-8-5.4-19.4-8.1-34.4-8.1h-66.7l-27.6,138.1h72.6c11.8,0,22.4-1.6,31.9-4.7,9.4-3.2,16.8-8,22.1-14.5s8-14.7,8-24.6-3.5-17.5-10.4-22.8c-2.5-1.9-5.2-3.4-8.3-4.6,7.4-3,13.4-7.5,17.9-13.4h0ZM185.6,179.5c6.4,0,11.4,1,15,3.1,3.5,2,5.3,5.4,5.3,10s-1.1,7.8-3.2,10.7c-2.1,3-5.1,5.2-9.1,6.6-3.9,1.4-8.7,2.2-14.4,2.2h-32.5l6.5-32.5h32.4ZM193.9,264.4c-5,3.4-11.9,5-20.7,5h-37.9l6.8-34.1h38.6c6.4,0,11.5,1.1,15.2,3.3s5.5,5.8,5.5,10.9-2.5,11.5-7.5,14.9h0Z"/>
        <path class="cls-1" d="M335.4,191.6c-7.6-3.9-16.5-5.8-26.9-5.8s-23,2.7-32.4,8.1c-9.4,5.4-16.8,12.7-22.1,22-5.3,9.3-8,19.8-8,31.7s2.2,17.9,6.7,25c4.5,7.1,10.8,12.6,18.9,16.6,8.2,3.9,17.7,5.9,28.6,5.9s15.9-1.2,23.6-3.5,14.6-5.9,20.8-10.7l-12.8-20.1c-3.5,3-7.8,5.4-12.8,7.1s-10.2,2.6-15.6,2.6c-9.3,0-16.3-2-20.8-6-4.1-3.6-6.3-8.8-6.7-15.7h81.4c.5-2.5,1-5.1,1.4-7.9.4-2.8.6-5.5.6-8.3,0-9.5-2.1-17.7-6.2-24.7s-10-12.4-17.6-16.3h-.1ZM290,213.7c4.7-3.2,10.4-4.8,17.1-4.8s10,1.1,13.7,3.3,6.5,5.3,8.3,9.3c1.2,2.7,1.7,5.8,1.6,9.4h-52.6c.4-1.3.9-2.5,1.4-3.7,2.4-5.7,6-10.1,10.7-13.3l-.2-.2Z"/>
        <polygon class="cls-1" points="479.8 121.3 449 121.3 443.8 147.1 443.8 147.1 414.6 293.5 445.4 293.5 450.6 267.6 450.6 267.6 479.8 121.3"/>
        <path class="cls-1" d="M561.6,191.7c-8-3.9-17.5-5.9-28.4-5.9s-23.4,2.7-33,8.1c-9.7,5.4-17.3,12.8-22.8,22.1s-8.3,19.9-8.3,31.8,2.2,17.6,6.7,24.8c4.5,7.2,10.7,12.7,18.7,16.7,8,3.9,17.4,5.9,28.2,5.9s23.5-2.7,33-8.1,17.1-12.8,22.6-22.1c5.5-9.3,8.3-19.9,8.3-31.8s-2.2-17.7-6.5-24.9c-4.3-7.1-10.5-12.6-18.5-16.6ZM551.5,253.1c-2.6,5.3-6.3,9.4-10.9,12.3-4.7,3-10,4.4-16.1,4.4s-13.6-2.1-17.8-6.4c-4.3-4.3-6.4-10-6.4-17.3s1.3-13.1,4-18.3c2.7-5.3,6.4-9.3,11.1-12.2s10.1-4.3,16-4.3,13.7,2.2,17.8,6.5,6.2,10,6.2,17-1.3,13.1-3.9,18.3h0Z"/>
        <path class="cls-1" d="M642.5,213.4h26.3l4.7-23.7h-26.3l5.2-25.8h-30.8l-5.2,25.8h-16.5l-4.7,23.7h16.5l-8.6,42.6c-1.6,8.2-1.2,15.2,1.1,21,2.3,5.9,6.1,10.3,11.5,13.4s11.9,4.6,19.5,4.6,9.2-.5,13.8-1.4,8.8-2.6,12.6-4.9l-4.5-21.9c-2,1.2-4,2.1-6.1,2.8-2.1.7-4.3,1-6.5,1-4.5,0-7.6-1.3-9.3-3.9s-2.2-6.2-1.4-10.6l8.6-42.6h.1Z"/>
        <polygon class="cls-1" points="392.3 155.4 364.7 293.5 395.5 293.5 423.1 155.4 392.3 155.4"/>
      </g>
    </g>
  </g>
</svg>