<?xml version="1.0" encoding="UTF-8"?>
<svg id="Layer_1" data-name="Layer 1" xmlns="http://www.w3.org/2000/svg" version="1.1" viewBox="0 0 150 50">
  <defs>
    <style>
      .cls-1 {
        fill: #fff;
        stroke-width: 0px;
      }
    </style>
  </defs>
  <polygon class="cls-1" points="69.7 25.6 74.9 25.6 74.9 28.6 66 28.6 66 21.3 75.5 21.3 75.5 19.8 65.6 19.8 64.4 21 64.4 28.9 65.6 30.1 75.3 30.1 76.4 28.9 76.4 24.1 69.7 24.1 69.7 25.6"/>
  <path class="cls-1" d="M86.9,19.8l-6.3,9.3v1h1.4l1.6-2.5h8.1l1.6,2.5h1.4v-1l-6.3-9.3h-1.5ZM84.6,26.1l3-4.7,3,4.7h-6.1,0Z"/>
  <polygon class="cls-1" points="109.9 19.8 106.6 28.2 103.4 19.8 101.4 19.8 98.6 29.1 98.6 30.1 100.2 30.1 102.4 21.6 105.8 30.1 107.5 30.1 110.9 21.6 113.1 30.1 114.7 30.1 114.7 29.1 111.9 19.8 109.9 19.8"/>
  <polygon class="cls-1" points="119.1 28.9 120.3 30.1 130.3 30.1 130.3 28.6 120.7 28.6 120.7 25.6 129.7 25.6 129.7 24.1 120.7 24.1 120.7 21.3 130.3 21.3 130.3 19.8 119.1 19.8 119.1 28.9"/>
  <polygon class="cls-1" points="147.5 24.8 137.2 23.2 137.2 21.3 147.5 21.3 147.5 19.8 136.7 19.8 135.5 21 135.5 23.5 136.7 24.7 147 26.3 147 28.6 135.5 28.6 135.5 30.1 147.5 30.1 148.7 28.9 148.7 26 147.5 24.8"/>
  <path class="cls-1" d="M37.4,18l2.9-2.1h18.9l-1,2.5c-.5,1.2-1.7,2-3,2h-13l-1,2.5h11.7l-.9,2.1c-.5,1.3-2,2.8-3.4,2.8h-9.4l-1.6,4c-.5,1.2-1.7,2-3,2h-3.6l6.5-15.9Z"/>
  <path class="cls-1" d="M13.1,25.2c-4,.5-5.3,1.4-7.3,5.2-.2.3-.6.3-.5,0,1.1-3.8.5-4.7-3.1-5.2-.3,0-.1-.5.2-.5,4-.5,5.3-1.4,7.3-5.2.2-.3.6-.3.5,0-1.1,3.8-.5,4.7,3.1,5.2.3,0,.1.5-.2.5Z"/>
  <path class="cls-1" d="M9.2,24.9h0Z"/>
  <path class="cls-1" d="M33.1,16H12.9l-1,2.5c-.2.6,0,1.3.4,1.7h0c.3.2.7.3,1,.3h14.2l-1,2.5h-14.6c-.4,0-.8.1-1.1.3-.7.3-1.3.9-1.6,1.7h0s-3.6,9-3.6,9h20.7c1.3,0,2.5-.8,3-2l2.1-5-1.2-2.1,1.3-1c.4-.3.7-.7.9-1.2l1.9-4.6-1.3-2.1ZM24.6,29.4h-11.4l1.1-2.7h11.4l-1.1,2.7Z"/>
</svg>