<?xml version="1.0" encoding="utf-8"?>
<!-- Generator: Adobe Illustrator 27.9.0, SVG Export Plug-In . SVG Version: 6.00 Build 0)  -->
<svg version="1.1" id="Layer_1" xmlns="http://www.w3.org/2000/svg" xmlns:xlink="http://www.w3.org/1999/xlink" x="0px" y="0px"
	 viewBox="0 0 150 50" style="enable-background:new 0 0 150 50;" xml:space="preserve">
<style type="text/css">
	.st0{fill:#FEFEFE;}
</style>
<g id="Layer-1">
	<path class="st0" d="M61.3,43.2c0,0.1-0.1,0.2-0.2,0.3s-0.3,0.1-0.5,0.1h-2.8c-0.2,0-0.3,0-0.5-0.1c-0.1-0.1-0.2-0.2-0.2-0.3v-2.2
		c0-0.1,0-0.2,0.2-0.3c0.2-0.1,0.3-0.1,0.5-0.1h2.8c0.2,0,0.4,0,0.5,0.1s0.2,0.2,0.2,0.3v1.3h-2.4V43c0,0,0,0.1,0.1,0.1
		c0,0,0.1,0,0.2,0c0.1,0,0.2,0,0.2-0.1v-0.4h1.9V43.2z M81.8,39.9c0,0.2-0.1,0.3-0.3,0.4c-0.2,0.1-0.4,0.2-0.7,0.2
		c-0.3,0-0.5,0-0.7-0.2c-0.2-0.1-0.3-0.2-0.3-0.4s0.1-0.3,0.3-0.4c0.2-0.1,0.4-0.2,0.7-0.2c0.2,0,0.5,0.1,0.7,0.2
		C81.7,39.6,81.8,39.8,81.8,39.9z M92.1,44.5c0,0.1,0,0.2-0.2,0.3c-0.2,0.1-0.3,0.1-0.5,0.1h-2.8c-0.2,0-0.4,0-0.5-0.1
		c-0.1-0.1-0.2-0.2-0.2-0.3v-0.6h1.9v0.4c0,0.1,0,0.1,0.2,0.1c0.1,0,0.2,0,0.2,0c0.1,0,0.1,0,0.1-0.1v-0.6h-1.7
		c-0.2,0-0.4,0-0.5-0.1c-0.1-0.1-0.2-0.2-0.2-0.3v-2.2c0-0.1,0.1-0.2,0.2-0.3c0.1-0.1,0.3-0.1,0.5-0.1h2.8c0.2,0,0.4,0,0.5,0.1
		c0.1,0.1,0.2,0.2,0.2,0.3V44.5z M90.2,43L90.2,43v-1.7c0-0.1,0-0.2-0.2-0.2c-0.1,0-0.2,0-0.2,0c0,0-0.1,0-0.1,0.1V43
		c0,0,0,0.1,0.1,0.1c0,0,0.1,0,0.2,0C90.2,43.1,90.2,43.1,90.2,43z M86.9,43.7h-1.9v-2.3c0-0.1-0.1-0.2-0.2-0.2c-0.1,0-0.2,0-0.3,0
		c0,0-0.1,0-0.1,0.1v2.4h-1.9v-2.6c0-0.1,0-0.2,0.2-0.3c0.1-0.1,0.3-0.1,0.5-0.1h2.8c0.2,0,0.4,0,0.5,0.1c0.1,0.1,0.2,0.2,0.2,0.3
		V43.7z M79,43.7h-1.9v-2.3c0-0.1,0-0.2-0.2-0.2c-0.1,0-0.2,0-0.2,0c-0.1,0-0.1,0-0.1,0.1v2.4h-1.9v-2.3c0-0.1,0-0.2-0.2-0.2
		c-0.1,0-0.2,0-0.2,0c0,0-0.1,0-0.1,0.1v2.4h-1.9v-2.6c0-0.1,0.1-0.2,0.2-0.3c0.1-0.1,0.3-0.1,0.5-0.1h5.2c0.2,0,0.4,0,0.5,0.1
		c0.2,0.1,0.2,0.2,0.2,0.3V43.7z M71.5,43.7h-1.9v-0.2c0,0,0,0.1-0.1,0.1c0,0-0.1,0-0.2,0.1h-1.5c-0.2,0-0.3,0-0.4-0.1
		c-0.1-0.1-0.2-0.2-0.2-0.3V41c0-0.1,0-0.2,0.2-0.3c0.1-0.1,0.3-0.1,0.5-0.1h3.6V43.7z M69.7,43.1L69.7,43.1v-2h-0.4
		c0,0-0.1,0-0.1,0c0,0,0,0,0,0V43c0,0,0,0.1,0,0.1c0,0,0.1,0,0.1,0H69.7z M66.4,44.5c0,0.1-0.1,0.2-0.2,0.3
		c-0.1,0.1-0.3,0.1-0.5,0.1h-2.8c-0.2,0-0.4,0-0.5-0.1s-0.2-0.2-0.2-0.3v-0.6H64v0.4c0,0.1,0,0.1,0.2,0.1c0.1,0,0.2,0,0.2,0
		c0.1,0,0.1,0,0.1-0.1v-0.6h-1.7c-0.2,0-0.4,0-0.5-0.1s-0.2-0.2-0.2-0.3v-2.2c0-0.1,0.1-0.2,0.2-0.3s0.3-0.1,0.5-0.1h2.8
		c0.2,0,0.4,0,0.5,0.1c0.1,0.1,0.2,0.2,0.2,0.3V44.5z M64.5,43L64.5,43v-1.7c0-0.1,0-0.2-0.2-0.2c-0.1,0-0.2,0-0.2,0
		c0,0-0.1,0-0.1,0.1V43c0,0,0,0.1,0.1,0.1c0,0,0.1,0,0.2,0C64.4,43.1,64.5,43.1,64.5,43z M81.8,43.7L81.8,43.7h-1.9v-3.1h1.9V43.7z
		 M56.6,38.3h7.2c-4.3-3.3-7.2-8.5-7.2-14.4c0-9.9,8.1-18,18-18l0,0c9.9,0,18,8.1,18,18V-7.3h-36V38.3z M75.4,38.3h1.3
		C84,38,91.3,33.8,92.4,25.7c-10.7,0-21.4,0-32.1,0C61.3,33.9,68.2,38,75.4,38.3z M85.4,38.3h7.2V23.9C92.5,29.8,89.7,35,85.4,38.3z
		 M60.3,25.6l28.6-3.5c-0.9-7.1-7-12.6-14.3-12.6c-7,0-12.8,5-14.2,11.6C60.1,22.5,60.1,24.1,60.3,25.6z M59.4,41.9L59.4,41.9v-0.6
		c0-0.1-0.1-0.2-0.2-0.2c-0.1,0-0.2,0-0.2,0c0,0-0.1,0-0.1,0.1v0.6H59.4z"/>
</g>
</svg>
