<svg xmlns="http://www.w3.org/2000/svg" width="412.3" height="129.645" viewBox="0 0 412.3 129.645">
  <g id="Group_52508" data-name="Group 52508" transform="translate(12810.8 3309)">
    <g id="egtLogo" transform="translate(-12811 -2689.458)">
      <g id="EGTLogoShapes">
        <path id="Path_24" data-name="Path 24" d="M77.8-518.9c-21.1,7-41.4,10.5-58.3,10.5a63.5,63.5,0,0,0,64.7,15.3c23-7.7,38.9-27.3,43.4-50C114.3-533.9,97.2-525.3,77.8-518.9Z" fill="#fff"/>
        <path id="Path_25" data-name="Path 25" d="M78.5-541.7l-1.7,4.2h3.4l-1.7-4.2Z" fill="#fff"/>
        <path id="Path_26" data-name="Path 26" d="M31.9-542.1H29.6v6.7h2.3a3.916,3.916,0,0,0,2.6-.9,3.566,3.566,0,0,0,0-4.9,3.464,3.464,0,0,0-2.6-.9Z" fill="#fff"/>
        <path id="Path_27" data-name="Path 27" d="M54.8-591.6c19.8-6.4,39.1-9.9,55.5-10.4a66.234,66.234,0,0,0-93.6,3.8A65.682,65.682,0,0,0,.2-564.9c14.1-10.2,33-19.7,54.6-26.7Z" fill="#fff"/>
        <path id="Path_28" data-name="Path 28" d="M89.4-527.6a172.3,172.3,0,0,0,38.9-18.2,66.694,66.694,0,0,0-2.6-29.1,66.044,66.044,0,0,0-14.8-25.3,170.751,170.751,0,0,0-41.8,8.6,182.582,182.582,0,0,0-34.9,15.7h13v5H33.3v5.8H45.5v4.8H33.3v6.2H47.6v5H27.2v-22.5C9-559.2-1.1-545.2,2.4-534.3c5.6,17.7,44.6,20.6,87,6.5Zm-28.3-5H58.6v-10.9h2.5Zm11.4-8.9H69.1v8.8H66.6v-8.8H63.2v-2.1h9.2v2Zm21.6,8.9H86.3v-10.9h2.5v8.8h5.3v2.1ZM77.9-575.9h23v5.1H92.5V-549H86.4v-21.8H78v-5.1Zm1.9,32.4,4.7,10.9H81.9l-.9-2.3H76.1l-.9,2.3H72.7l4.7-10.9h2.4ZM51.6-569.6a13.178,13.178,0,0,1,5.2-5,16.264,16.264,0,0,1,7.5-1.8,16.807,16.807,0,0,1,6.3,1.2,11.634,11.634,0,0,1,4.7,3.5L71.4-568a8.488,8.488,0,0,0-6.8-3,8.83,8.83,0,0,0-4.5,1.1,7.859,7.859,0,0,0-3,3,9.563,9.563,0,0,0,0,9,8.906,8.906,0,0,0,3,3.1,9.879,9.879,0,0,0,4.4,1.1,9.392,9.392,0,0,0,4.7-1.2v-7.9h5.6v10.9a15.654,15.654,0,0,1-5,2.5,18.364,18.364,0,0,1-5.7.9,15.862,15.862,0,0,1-7.4-1.8,12.9,12.9,0,0,1-5.1-5,14.762,14.762,0,0,1,0-14.4h0ZM46.3-541a5.775,5.775,0,0,1,2.1-2,6.3,6.3,0,0,1,3-.7,6.963,6.963,0,0,1,2.5.5,5.222,5.222,0,0,1,1.9,1.4l-1.6,1.5a3.571,3.571,0,0,0-2.7-1.2,3.922,3.922,0,0,0-1.8.4,3.447,3.447,0,0,0-1.2,1.2,3.825,3.825,0,0,0,0,3.6,3.447,3.447,0,0,0,1.2,1.2,2.827,2.827,0,0,0,1.8.4,4.136,4.136,0,0,0,1.9-.5v-3.2h2.2v4.4a5.382,5.382,0,0,1-2,1,8.518,8.518,0,0,1-2.3.4,6.3,6.3,0,0,1-3-.7,5.775,5.775,0,0,1-2.1-2,5.982,5.982,0,0,1,0-5.8h0Zm-5.8-2.5H43v10.9H40.5Zm-3.3,8.3a4.838,4.838,0,0,1-2.1,1.9,6.428,6.428,0,0,1-3.1.7H27.2v-10.9H32a6.7,6.7,0,0,1,3.1.7,4.837,4.837,0,0,1,2.1,1.9,5.79,5.79,0,0,1,0,5.7h0Z" fill="#fff"/>
      </g>
    </g>
    <g id="egtDigital" transform="translate(-12811 -2689.458)">
      <path id="egt" d="M164.4-605.2h29.9v7.4H173.5v8.6h18.4v7.1H173.5v9.1H195v7.4H164.3v-39.6Zm76.1.1H275v7.5H262.4v32h-9.1v-32.1H240.7v-7.4h-.2ZM201-595.9a18.966,18.966,0,0,1,7.8-7.3,25.892,25.892,0,0,1,20.6-.8,18.984,18.984,0,0,1,7.1,5.1l-5.9,5.4a13.34,13.34,0,0,0-10.2-4.4,14.093,14.093,0,0,0-6.7,1.6,12.153,12.153,0,0,0-4.6,4.4,13.8,13.8,0,0,0-1.7,6.6,12.75,12.75,0,0,0,1.7,6.6,11.455,11.455,0,0,0,4.5,4.5,13.7,13.7,0,0,0,6.6,1.6,14.6,14.6,0,0,0,7.1-1.7v-11.6h8.4v16.1a21.062,21.062,0,0,1-7.5,3.7,31.439,31.439,0,0,1-8.6,1.3,23.559,23.559,0,0,1-11.1-2.6,20.271,20.271,0,0,1-7.8-7.3,20.4,20.4,0,0,1-2.8-10.5,24.455,24.455,0,0,1,3-10.6h0Z" fill="#fff"/>
      <path id="digital" d="M290.2-505.3h-9.1v-39.3h9.1Zm41.9-32.1H319.6v32h-9.1v-32H298v-7.5h34.2v7.5Zm80.2,32.1H383.6v-39.3h9.1v32h19.8v7.3h-.2Zm-53.1-39.6,17.5,39.3h-9.6l-3.4-8.4H345.5l-3.4,8.4h-9.6L350-544.9h9.2Zm-124,9.3a18.675,18.675,0,0,1,7.7-7.3,21.848,21.848,0,0,1,11.2-2.7,24.447,24.447,0,0,1,9.3,1.8,19.543,19.543,0,0,1,7.1,5l-5.9,5.5a13.345,13.345,0,0,0-10.3-4.5,13.7,13.7,0,0,0-6.6,1.6,11.7,11.7,0,0,0-4.6,4.5,12.661,12.661,0,0,0-1.6,6.6,13.7,13.7,0,0,0,1.6,6.6,12.22,12.22,0,0,0,11.2,6.1,15.715,15.715,0,0,0,7.1-1.6v-11.6h8.2v15.9a19.323,19.323,0,0,1-7.5,3.6,26.9,26.9,0,0,1-8.4,1.4,22.858,22.858,0,0,1-10.9-2.7,19.332,19.332,0,0,1-7.7-7.3,20.311,20.311,0,0,1-2.7-10.5,19.678,19.678,0,0,1,3-10.5h0Zm-21.6-9.3h9.1v39.3h-9.1Zm-12.3,30a16.944,16.944,0,0,1-7.7,6.8,25.254,25.254,0,0,1-11.4,2.5H164.4v-39.3h17.8a26.646,26.646,0,0,1,11.4,2.5,18.17,18.17,0,0,1,7.7,6.8,21.187,21.187,0,0,1,0,20.7Zm153.3-20.9-6.4,15h12.5l-6.2-15Zm-172.7-1.6h-8.2v24.3h8.2a13.7,13.7,0,0,0,9.3-3.2,11.887,11.887,0,0,0,3.4-8.9,11.887,11.887,0,0,0-3.4-8.9,12.4,12.4,0,0,0-9.3-3.4h0Z" fill="#fff"/>
    </g>
  </g>
</svg>
