<?xml version="1.0" encoding="utf-8"?>
<!-- Generator: Adobe Illustrator 25.3.1, SVG Export Plug-In . SVG Version: 6.00 Build 0)  -->
<svg version="1.1" xmlns="http://www.w3.org/2000/svg" xmlns:xlink="http://www.w3.org/1999/xlink" x="0px" y="0px"
	 viewBox="0 0 697.1 257.24" style="enable-background:new 0 0 697.1 257.24;" xml:space="preserve">
<style type="text/css">
	.st0{fill:#FFFFFF;}
	.st1{fill:url(#SVGID_1_);}
	.st2{fill:url(#SVGID_2_);}
	.st3{fill:url(#SVGID_3_);}
	.st4{fill:url(#SVGID_4_);}
	.st5{fill:url(#SVGID_5_);}
	.st6{fill:url(#SVGID_6_);}
	.st7{fill:url(#SVGID_7_);}
	.st8{fill:url(#SVGID_8_);}
	.st9{fill:url(#SVGID_9_);}
	.st10{fill:url(#SVGID_10_);}
	.st11{fill:url(#SVGID_11_);}
	.st12{fill:url(#SVGID_12_);}
	.st13{display:none;}
	.st14{display:inline;}
</style>
<g id="Background">
	<rect width="697.1" height="257.24"/>
</g>
<g id="Greentube_Wordmark">
	<g id="Greentube_Wordmark_White">
		<path class="st0" d="M97.87,136.48c-8.86,0-16.07-7.21-16.07-16.07s7.21-16.07,16.07-16.07s16.07,7.21,16.07,16.07
			S106.73,136.48,97.87,136.48 M130.59,87.69h-16.65v4.25c-4.75-2.69-10.23-4.25-16.07-4.25c-18.04,0-32.72,14.68-32.72,32.72
			s14.68,32.72,32.72,32.72s32.72-14.68,32.72-32.72c0-0.06-0.01-0.12-0.01-0.18h0.01V87.69z"/>
		<path class="st0" d="M81.65,192.15H65.09c0-17.94,14.6-32.54,32.54-32.54h32.96v16.56H97.63
			C88.82,176.17,81.65,183.34,81.65,192.15"/>
		<path class="st0" d="M153.84,153.13h-16.56v-32.96c0-17.95,14.6-32.54,32.54-32.54v16.56c-8.81,0-15.98,7.17-15.98,15.98V153.13z"
			/>
		<path class="st0" d="M457.67,153.13c-17.94,0-32.54-14.6-32.54-32.54V87.7h16.56v32.89c0,8.81,7.17,15.98,15.98,15.98
			c8.81,0,15.98-7.17,15.98-15.98V87.7h16.56v32.89C490.22,138.53,475.62,153.13,457.67,153.13"/>
		<path class="st0" d="M377.61,153.13h-16.56v-32.89c0-8.81-7.17-15.98-15.98-15.98s-15.98,7.17-15.98,15.98v32.89h-16.56v-32.89
			c0-17.94,14.6-32.54,32.54-32.54s32.54,14.6,32.54,32.54V153.13z"/>
		<path class="st0" d="M530.39,136.57c-8.81,0-15.98-7.17-15.98-15.98s7.17-15.98,15.98-15.98c8.81,0,15.98,7.17,15.98,15.98
			S539.2,136.57,530.39,136.57 M530.39,88.05c-5.81,0-11.26,1.55-15.98,4.23V65.09h-16.56v55.5c0,17.94,14.6,32.54,32.54,32.54
			c17.94,0,32.54-14.6,32.54-32.54S548.33,88.05,530.39,88.05"/>
		<path class="st0" d="M416.85,104.26V87.69h-15.99v-22.6H384.3v55.33c0,17.94,14.6,32.54,32.54,32.54v-16.56
			c-8.81,0-15.98-7.17-15.98-15.98v-16.15H416.85z"/>
		<path class="st0" d="M235.79,128.88c0.7-2.64,1.07-5.43,1.07-8.29c0-17.94-14.6-32.54-32.54-32.54s-32.54,14.6-32.54,32.54
			s14.6,32.54,32.54,32.54c13.24,0,24.66-7.95,29.74-19.33H213.3c-2.56,1.75-5.66,2.77-8.99,2.77c-8.82,0-15.98-7.17-15.98-15.98
			c0-8.81,7.17-15.98,15.98-15.98c5.78,0,10.86,3.09,13.66,7.7h-18.12v16.56L235.79,128.88z"/>
		<path class="st0" d="M270.23,128.87v-16.56h18.13c-2.81-4.61-7.89-7.7-13.67-7.7c-8.81,0-15.98,7.17-15.98,15.98
			c0,8.82,7.17,15.98,15.98,15.98c3.32,0,6.42-1.02,8.98-2.77h20.76c-5.08,11.38-16.49,19.33-29.74,19.33
			c-17.94,0-32.54-14.6-32.54-32.54c0-17.95,14.6-32.55,32.54-32.55c17.95,0,32.54,14.6,32.54,32.55c0,2.86-0.37,5.64-1.07,8.29
			L270.23,128.87z"/>
		<path class="st0" d="M613.13,128.88C613.13,128.88,613.14,128.88,613.13,128.88l-18.12-0.01v-16.56h18.12
			c-2.8-4.61-7.88-7.7-13.66-7.7c-8.82,0-15.98,7.17-15.98,15.98c0,8.81,7.17,15.98,15.98,15.98c3.32,0,6.42-1.02,8.98-2.77h20.76
			c-5.08,11.38-16.5,19.33-29.74,19.33c-17.94,0-32.54-14.6-32.54-32.54s14.6-32.54,32.54-32.54c17.94,0,32.54,14.6,32.54,32.54
			c0,2.86-0.37,5.64-1.07,8.29H613.13z"/>
	</g>
</g>
<g id="Safe_Area" class="st13">
</g>
<g id="Guides_1_" class="st13">
</g>
</svg>
