<?xml version="1.0" encoding="utf-8"?>
<!-- Generator: Adobe Illustrator 25.4.1, SVG Export Plug-In . SVG Version: 6.00 Build 0)  -->
<svg version="1.1" xmlns="http://www.w3.org/2000/svg" xmlns:xlink="http://www.w3.org/1999/xlink" x="0px" y="0px"
	 viewBox="0 0 1714.6 194.3" style="enable-background:new 0 0 1714.6 194.3;" xml:space="preserve">
<style type="text/css">
	.st0{display:none;}
	.st1{display:inline;stroke:#FFFFFF;stroke-miterlimit:10;}
	.st2{fill:#FFFFFF;}
</style>
<g id="Vrstva_2" class="st0">
	<rect x="-13" y="-20" class="st1" width="1772" height="242"/>
</g>
<g id="Vrstva_1">
	<g id="Layer_2">
		<g id="Layer_1-2">
			<polyline class="st2" points="619,10.5 789.6,10.5 771.8,38.3 753.5,38.3 753.5,27.2 731.6,27.2 731.6,123.7 753.5,123.7 
				746.2,141.2 663.5,141.2 655.7,123.7 683.3,123.7 683.3,27.2 659.4,27.2 659.4,38.3 637.4,38.3 619,10.5 			"/>
			<path class="st2" d="M285.2,57.2l13.5-30l12.2,30H285.2 M378.6,123.7l-14.5-41.9V57.2H355l-9.5-30h15.3l-13.2-16.7H249
				l-12.7,16.7h10.4l-35.6,96.4h-7.4l0.8,17.5h61.6l9-17.5h-15.6l18-42h39.2l16.1,42h-23.6l10,17.5h67l7.9-17.5H378.6"/>
			<path class="st2" d="M572.6,105.3c-22.9,0-41.7-15-41.7-33.4c0-18.6,18.8-33.6,41.7-33.6s41.7,15,41.7,33.6
				C614.2,90.2,595.5,105.3,572.6,105.3 M563,10.5c-45.3,0-82.2,29.3-82.2,65.3c0,35.9,36.9,65.4,82.2,65.4s82.2-29.5,82.2-65.3
				C645.2,39.8,608.3,10.5,563,10.5"/>
			<path class="st2" d="M358.5,10.5h133.8c-29.1,75.4-20.8,155.7-138.5,183.8c-3.3,0.5-5.3-2.9-2.6-6c54.8-31.8,66.2-94.3,79-161.1
				h-36.1v11.1h-17L358.5,10.5"/>
			<path class="st2" d="M62.2,27.2l-9.3-16.7h90l-7.8,16.7h-7.9l-9.8,30h9.7l47.7-46.7h64.7l-92.4,46.7h29.5l4.1,66.5h16.8
				l-10.4,17.5h-68.3l-10.2-17.5h22.5v-43h-21.6c-13,30.6-34.1,66.2-103.6,89.2c-4.8,2.2-8.4-3.4-4.3-6.1
				c60.8-40.1,58.6-87.3,70.8-136.5L62.2,27.2"/>
			<path class="st2" d="M1028.2,140.5c-2.4,0-4.9-0.3-7.2-0.8c-2.6-0.6-5.2-1.4-7.6-2.5c-2.6-1.2-5-2.6-7.2-4.4
				c-2.4-1.9-4.5-4.1-6.2-6.6c-1.9-2.7-3.3-5.7-4.3-8.9c-1.1-3.6-1.6-7.4-1.6-11.2V45.6c0-2.4,0.3-4.9,0.8-7.2
				c0.5-2.6,1.4-5.2,2.5-7.6c1.2-2.6,2.6-5,4.4-7.3c1.9-2.4,4.1-4.5,6.6-6.2c2.7-1.9,5.7-3.3,8.8-4.3c3.6-1.1,7.4-1.6,11.2-1.6h93.8
				v28.1h-93.8c-2.2,0-3.7,0.5-4.7,1.5s-1.5,2.6-1.5,4.9v60.4c-0.4,3,1.6,5.8,4.6,6.2c0.5,0.1,1.1,0.1,1.6,0h66.8V90h-59.6V61.8
				h73.5c3.8,0,7.4,1.5,10,4.2c1.3,1.3,2.3,2.8,3,4.4c0.7,1.7,1.1,3.6,1.1,5.5v50.5c0,1.9-0.4,3.8-1.1,5.6c-0.7,1.7-1.7,3.2-3,4.5
				c-1.3,1.3-2.8,2.3-4.5,3c-1.8,0.7-3.7,1.1-5.6,1.1L1028.2,140.5z"/>
			<path class="st2" d="M1239.4,140.5v-30.3h-73v30.3h-28.1V75.9c-0.1-8.9,1.6-17.7,4.9-26c3.1-7.7,7.7-14.6,13.5-20.5
				c5.9-5.8,12.8-10.3,20.5-13.4c8.2-3.2,16.9-4.9,25.7-4.8h50.4c1.9,0,3.7,0.4,5.5,1.1c1.7,0.7,3.2,1.7,4.5,3
				c2.6,2.7,4.1,6.3,4.1,10v115L1239.4,140.5z M1239.4,82.1V39.4h-36.5c-0.7,0-2,0.1-4.1,0.3c-2.4,0.3-4.8,0.7-7.2,1.4
				c-3,0.9-5.9,2-8.6,3.5c-3,1.6-5.8,3.7-8.1,6.3c-2.6,3-4.7,6.4-6.1,10.1c-1.7,4.8-2.6,9.8-2.4,14.9v6.2H1239.4z"/>
			<path class="st2" d="M1362.4,142.2c-2.4,0-4.7-0.6-6.8-1.7c-2.2-1.2-4-3-5.1-5.2l-34.5-60.5v65.7h-28.1V23.7c0-3.1,1-6.1,2.8-8.6
				c1.9-2.5,4.5-4.3,7.5-5.1c1.2-0.3,2.3-0.4,3.5-0.4c0.3,0,0.7,0,1,0c1.5,0.1,2.9,0.4,4.3,0.9c1.4,0.5,2.7,1.3,3.9,2.3
				c1.2,1,2.2,2.2,2.9,3.6l48.5,84.3l48.5-84.3c1.6-2.7,4-4.7,6.9-5.9c1.7-0.7,3.5-1,5.3-1c1.3,0,2.5,0.2,3.7,0.5
				c3,0.8,5.6,2.6,7.5,5.1c1.9,2.5,3,5.5,2.9,8.6v116.8H1409V74.8l-34.4,60.5c-1.2,2.2-3,4-5.2,5.2
				C1367.2,141.6,1364.8,142.2,1362.4,142.2z"/>
			<path class="st2" d="M1574.8,39.4V11.3h-103.7c-1.9,0-3.8,0.4-5.6,1.1c-1.7,0.7-3.2,1.7-4.5,3c-1.3,1.3-2.3,2.8-3,4.5
				c-0.7,1.7-1.1,3.6-1.1,5.5v80.8c-0.2,5.5,1,11,3.5,16c2.1,4.1,5,7.7,8.6,10.6c3.3,2.7,7.1,4.7,11.2,5.9c3.6,1.1,7.3,1.7,11,1.8
				h83.6v-28.1h-83.4c-2.2,0-3.8-0.5-4.8-1.5s-1.5-2.6-1.5-4.7V90h79.6V61.8H1485V39.4H1574.8z"/>
			<path class="st2" d="M1586.6,140.5v-28.1h89.2c3.5,0,6.1-1,8-2.9s2.8-4.7,2.8-8.2c0-1.6-0.2-3.2-0.8-4.7
				c-0.5-1.3-1.2-2.5-2.1-3.5c-0.9-1-2-1.7-3.3-2.2c-1.5-0.6-3-0.9-4.6-0.8h-51.5c-4.3,0-8.5-0.7-12.6-2c-4.6-1.4-8.9-3.7-12.6-6.7
				c-4.1-3.3-7.4-7.5-9.7-12.2c-2.6-5-3.9-11.2-3.9-18.3s1.3-13.3,3.9-18.3c4.5-9.1,12.6-16,22.3-19c4.1-1.3,8.3-2,12.5-2.1h79v28
				h-79c-3.4,0-6,1-7.8,3s-2.8,4.8-2.8,8.3s0.9,6.3,2.8,8.2s4.4,2.9,7.9,2.9h51.5c2.8,0.1,5.7,0.4,8.4,1.1
				c6.1,1.4,11.9,4.2,16.8,8.1c2.7,2.2,5,4.7,7,7.5c2.1,3.1,3.7,6.5,4.8,10.1c1.2,4.1,1.8,8.4,1.8,12.7c0.1,4.3-0.6,8.6-1.8,12.8
				c-1.1,3.6-2.7,7-4.8,10.1c-1.9,2.9-4.3,5.4-7.1,7.5c-5,3.9-10.7,6.5-16.8,7.9c-2.7,0.6-5.5,0.9-8.3,0.9L1586.6,140.5z"/>
			<path class="st2" d="M935.3,21.2c-16.1-15-38.2-22.8-59.4-21l0,0h-0.1h-0.3v0.2h-0.1V0.3c-7.9,0.7-15.7,2.8-22.9,6.2
				c-24.5,10.7-40.6,33.1-43.3,60.1h0.3v0.2h-0.3c-1.5,15.1,1.6,30.4,8.8,43.8c7.8,14.2,20.1,25.2,35,31.4
				c9.2,4.1,19.2,6.3,29.3,6.2c2.6,0,5.1-0.1,7.7-0.4h0l0.3,0.1l0.1-0.2c4.8-0.5,9.5-1.5,14.2-2.9c15-4.6,28.3-13.6,38.2-25.7
				c10.2-12.5,15.7-28.1,15.5-44.2C958.9,54.6,950.7,35.6,935.3,21.2z M909.9,66.7c-0.2-1.1-0.4-2.2-0.7-3.4c9.9-4,19.4-9,28.2-15.1
				c3.8,8.4,5.7,17.5,5.7,26.7c0,1.5,0,3-0.1,4.6c-7.9,7.2-18,13.4-30.2,18.6C913.3,87.5,912.3,77,909.9,66.7z M939.4,97.7
				c-5.6,15-16.7,27.3-31.1,34.3c1.6-6.8,2.7-13.6,3.6-20.5C921.6,108.1,930.9,103.5,939.4,97.7L939.4,97.7z M930.8,36.8
				c-5.8,4.9-14.8,10.2-25,14.8c-4.6-12.8-12.2-26.8-22.7-41.6C902.1,11.6,919.5,21.4,930.8,36.8L930.8,36.8z M865.5,120.2
				c13.1-0.5,26.1-2.6,38.7-6.3c0.4,7.1,0.5,13.7,0.3,19.8c-7.5,3.1-15.5,4.8-23.6,4.9C875.1,133,870,126.9,865.5,120.2L865.5,120.2
				z M816.3,64.2c3.3-20.8,15.8-38.4,33.8-47.5c-8.5,15.2-13.3,32.2-14.1,49.5C829.4,66.1,822.8,65.4,816.3,64.2L816.3,64.2z
				 M846.9,66.2c-0.6-18.5,2.3-37.7,7.8-51.5l0.1-0.1l0.9-0.4c7.5-2.9,15.4-4.4,23.5-4.3c6.6,14.9,12,30.3,16.3,46
				C879.9,61.7,863.6,65.2,846.9,66.2L846.9,66.2z M859.8,111c-5-8.8-8.8-18.2-11.2-28.1c-0.4-2.4-0.8-5-1-7.7
				c17.3-0.1,34.5-2.8,51-8.1c0.2,1,0.5,2.1,0.7,3.1c1.9,12.1,3.2,22.1,4,31.5C889.2,106.7,874.6,109.8,859.8,111z M848.1,111.5
				c-7.8,0.1-15.5-0.7-23.1-2.4c-6.9-11.2-10.2-24.3-9.5-37.4c6.8,1.7,13.7,2.7,20.6,3.2c0.2,3.4,0.7,6.9,1.5,10.2
				C839.3,94.5,842.9,103.5,848.1,111.5L848.1,111.5z M827.6,112.1l-0.4,0.2l-0.5-0.7C827.2,111.9,827.4,112,827.6,112.1
				L827.6,112.1z M827.9,112.3L827.9,112.3L827.9,112.3L827.9,112.3c-0.1-0.1-0.1-0.3,0-0.4c0,0.1-0.1,0.1-0.1,0.1
				c0-0.1,0-0.2,0-0.3c0,0,0-0.1,0.1-0.1l0.4,0.2l-0.1,0.6l-0.1,0.1C828,112.5,827.9,112.4,827.9,112.3L827.9,112.3z M854.3,120.2
				c5.6,6.9,12.1,12.9,19.3,18.1c-6.3-0.7-12.6-2.2-18.5-4.6l0,0c-9.3-3.5-17.7-9.3-24.3-16.7C838.6,118.8,846.4,119.9,854.3,120.2
				L854.3,120.2z"/>
		</g>
	</g>
</g>
</svg>
