<?xml version="1.0" encoding="UTF-8"?>
<svg id="Layer_1" data-name="Layer 1" xmlns="http://www.w3.org/2000/svg" viewBox="0 0 259.63 237.34">
  <defs>
    <style>
      .cls-1 {
        fill: #fff;
      }
    </style>
  </defs>
  <g>
    <path class="cls-1" d="M129.61,13.42h.01s-.02,0-.1,0c.07,0,.06,0,.09,0Z"/>
    <path class="cls-1" d="M129.67,13.42h-.05s.03,0,.05,0Z"/>
    <path class="cls-1" d="M129.83,13.42c-.08,0-.07,0-.1,0h.01s.02,0,.09,0Z"/>
    <path class="cls-1" d="M129.73,13.42h-.05s.04,0,.05,0Z"/>
    <g>
      <path class="cls-1" d="M258.38,39.09c-.5-2.5-1.11-4.84-1.81-7.06-11.6-7.78-33.29-12.46-33.29-12.46,8.92-4.16,18.2-4.06,25.38-2.87-29.47-37.47-105.09-.97-91,4.43,0,0,5.34,6.53,12.31,15.91.78-.97,1.63-1.96,2.1-2.32,1.01-.79,4.24-3.13,20.24-3.73,15.23-.57,26.49,3.31,31.3,15.48,4.56,11.53,0,19.84,0,19.84,0,0-11,14.5-28.44,9.52,5.84,11.33,8.76,21.1,4.69,25.25-3.36,3.42,27.26,1.1,45.94-17.06-1.36-8.44-6.72-20.81-6.72-20.81,7.92-1.09,12.11,7.31,13.83,12.08,5.73-9.11,8.52-20.97,5.48-36.2Z"/>
      <path class="cls-1" d="M1.25,39.09c.5-2.5,1.11-4.84,1.81-7.06,11.6-7.78,33.29-12.46,33.29-12.46-8.92-4.16-18.2-4.06-25.38-2.87,29.47-37.47,105.09-.97,91,4.43,0,0-5.34,6.53-12.31,15.91-.78-.97-1.63-1.96-2.1-2.32-1.01-.79-4.24-3.13-20.24-3.73-15.23-.57-26.49,3.31-31.3,15.48-4.56,11.53,0,19.84,0,19.84,0,0,11,14.5,28.44,9.52-5.84,11.33-8.76,21.1-4.69,25.25,3.36,3.42-27.26,1.1-45.94-17.06,1.36-8.44,6.72-20.81,6.72-20.81-7.92-1.09-12.11,7.31-13.83,12.08C1,66.19-1.8,54.33,1.25,39.09Z"/>
    </g>
    <path class="cls-1" d="M190.97,39.6c-14.6-22.17-53.18-25.86-60.76-26.17-.34-.01-.29,0-.38,0h-.09s-.03,0-.06,0h0s-.05,0-.06,0h-.09c-.1,0-.05,0-.38,0-7.58.31-46.16,4-60.76,26.17-14.39,21.85-19.68,58.15-15.67,71.17h50.3c1.17-14.51,12.49-32.52,15.99-35.98,4.01-3.97,9.16-4.03,10.59-3.96,1.43-.07,6.58,0,10.59,3.96,3.49,3.46,14.82,21.48,15.99,35.98h50.47c4.01-13.03-1.28-49.32-15.67-71.17ZM102.46,83.15c-.4,4.65-1.77,8.52-3.73,11.52-2.79,4.74-6.9,7.63-11.15,8.36-7.11,1.21-14.7-5.61-13.6-21.96.78-11.54,10.12-20.36,17.19-19.75,3.34.29,6.21,2.64,8.19,6.26,2.37,3.84,3.62,9.45,3.09,15.57ZM171.65,103.03c-4.87-.83-9.56-4.51-12.29-10.57-1.28-2.62-2.17-5.73-2.48-9.32-.44-5.11.36-9.87,2.02-13.54,1.95-4.75,5.22-7.95,9.16-8.29,7.07-.61,16.41,8.22,17.19,19.75,1.1,16.35-6.49,23.17-13.6,21.96Z"/>
  </g>
  <g id="_Group_Troika_Font" data-name="&amp;lt;Group&amp;gt; Troika Font">
    <path class="cls-1" d="M29.08,119.79l.36,22.14,9.18-6.66.45-15.66,18.27,1.17-1.44,18.99-10.8,6.66,11.07,4.86,3.78,23.58-18.9,1.08-.99-15.57-9.9-6.66.63,21.24-17.91.63-.72-55.52,16.92-.27Z"/>
    <path class="cls-1" d="M110.51,163.97l-1.89,10.17-26.55,1.08-15.84-1.8,1.35-53.36,38.69-.63,4.23,44.54ZM93.42,159.38l-1.17-24.03-9.99-.54-.45,25.02,11.61-.45Z"/>
    <path class="cls-1" d="M161.27,175.4l-16.2.72-.9-11.16-12.87,1.08-.45,9.63-15.48-.27,2.34-32.22,11.25-23.31,15.84-.63,13.05,21.33,3.42,34.83ZM142.91,151.91l-.63-7.29-4.86-10.35-4.68,10.17-.81,8.1,10.98-.63Z"/>
    <path class="cls-1" d="M184.03,159.2l16.56-.45-.45,16.92-34.02-.81.36-7.02s.45-45.8.45-47.96l18.36-.81-1.26,40.13Z"/>
    <path class="cls-1" d="M249.9,175.4l-16.2.72-.9-11.16-12.87,1.08-.45,9.63-15.48-.27,2.34-32.22,11.25-23.31,15.84-.63,13.05,21.33,3.42,34.83ZM231.54,151.91l-.63-7.29-4.86-10.35-4.68,10.17-.81,8.1,10.98-.63Z"/>
  </g>
  <polygon class="cls-1" points="78.55 215.03 84.73 215.03 81.64 206.76 78.55 215.03"/>
  <path class="cls-1" d="M103.81,191.85l-43.3-6.18-1.54,51.66,45.66-.91-.82-44.58ZM89.82,228.76l-2.14-5.73h-12.09l-2.14,5.73h-10.9l13.9-32.9h10.54l13.9,32.9h-11.09Z"/>
  <path class="cls-1" d="M110.6,187.53l-.73,47.77,47.6-1.83.95-46.71-47.82.77ZM143.2,228.76l-.09-14.99-6.91,12.03h-4.73l-6.91-11.52v14.48h-9.77v-32.9h8.81l10.36,17.53,10.09-17.53h8.81l.09,32.9h-9.77Z"/>
  <path class="cls-1" d="M163.34,188.98l.14,45.25,39.18,2.08.47-50.52-39.79,3.19ZM196.77,228.76h-26.44v-32.9h25.85v8.37h-15.31v3.85h13.45v7.99h-13.45v4.32h15.9v8.37Z"/>
  <path class="cls-1" d="M246.06,187.29l-38.04.77-.66,46.99,39.61,1.04-.91-48.8ZM225.84,229.51c-5.32,0-10.68-1.36-13.86-3.38l3.45-8.08c3,1.83,7,3.01,10.5,3.01,3.04,0,4.13-.66,4.13-1.79,0-4.14-17.58-.8-17.58-13.07,0-6.11,4.95-11.09,14.81-11.09,4.27,0,8.68.94,12,2.87l-3.23,8.04c-3.14-1.65-6.09-2.44-8.86-2.44-3.14,0-4.13.94-4.13,2.07,0,3.95,17.58.66,17.58,12.79,0,6.02-4.95,11.09-14.81,11.09Z"/>
  <path class="cls-1" d="M12.65,188.17l2.1,49.17,38.68-1.74,2.38-47.43H12.65ZM36.51,195.1c6.27,0,11.31,2.26,14.54,6.35l-6.86,6.25c-2-2.4-4.32-3.62-7.13-3.62-4.73,0-7.72,3.15-7.72,8.23s3,8.23,7.59,8.23c1.32,0,2.59-.23,3.91-.8v-8.32h9.31v13.91c-3.86,2.73-9.18,4.18-13.86,4.18-10.27,0-17.77-7.1-17.77-17.2s7.5-17.2,17.99-17.2Z"/>
</svg>