<?xml version="1.0" encoding="utf-8"?>
<!-- Generator: Adobe Illustrator 27.9.0, SVG Export Plug-In . SVG Version: 6.00 Build 0)  -->
<svg version="1.1" id="Layer_1" xmlns="http://www.w3.org/2000/svg" xmlns:xlink="http://www.w3.org/1999/xlink" x="0px" y="0px"
	 viewBox="0 0 150 50" style="enable-background:new 0 0 150 50;" xml:space="preserve">
<style type="text/css">
	.st0{fill:#FFFFFF;}
</style>
<g>
	<path class="st0" d="M68.7,20.8c0.4,0.5,0.7,0.8,1.1,1.2c0.9,1.1,1.9,2.1,2.8,3.2c0.5,0.6,1,1.2,1.5,1.7c0.2,0.3,0.5,0.5,0.8,0.7
		c0.5,0.2,0.7-0.2,1-0.5c0.9-1,1.7-2,2.6-2.9c0.6-0.6,1.1-1.3,1.7-1.9c0.4-0.4,0.8-0.9,1.3-1.4c0,2.8,0,5.4,0,8.1c1.1,0,2.2,0,3.4,0
		c0-0.4,0-0.7,0-1c0-3.3,0-6.6,0-9.9c0-0.8-0.4-1.2-1.2-1.2c-0.5,0.1-1,0-1.6,0c-0.4,0-0.7,0.1-0.9,0.4c-1.1,1.3-2.3,2.5-3.4,3.7
		c-0.5,0.6-1.1,1.2-1.6,1.8c-0.4,0.4-0.8,0.8-1.2,1.2c-0.9-1-1.8-2-2.6-3c-0.5-0.5-0.9-1-1.4-1.6c-0.7-0.8-1.3-1.6-2-2.3
		c-0.2-0.2-0.5-0.3-0.8-0.3c-0.6,0-1.2,0-1.8,0c-0.6,0-0.9,0.3-0.9,0.9c0,3.6,0,7.2,0,10.8c0,0.1,0,0.3,0,0.4c1.1,0,2.2,0,3.3,0
		C68.7,26.2,68.7,23.6,68.7,20.8z M35.6,21.4c-1.1-0.8-2-1.6-3.1-2.4c1.2,0,2.2,0,3.3,0c1.4,0,2.7,0,4.1,0c0.9,0,1.2,0.3,1.1,1.1
		c0,0.4,0,0.8,0,1.1c0,0.5-0.2,0.7-0.6,0.8c-0.2,0.1-0.5,0.1-0.8,0.1c-3.6,0-7.3,0-10.9,0c-0.5,0-0.6,0.2-0.6,0.6c0,1.9,0,3.9,0,5.8
		c0,0.1,0,0.2,0,0.4c1.2,0,2.4,0,3.5,0c0-1.6,0-3.1,0-4.6c0.2,0,0.3,0,0.5,0c3,0,6.1,0,9.1,0c0.5,0,1-0.1,1.5-0.2
		c1.1-0.3,1.7-1,1.7-2.1c0-1,0-2.1,0-3.1c0-0.3-0.1-0.7-0.3-0.9c-0.5-0.9-1.4-1.1-2.3-1.1c-4.3,0-8.6,0-12.9,0c-0.1,0-0.3,0-0.4,0.1
		c-0.6,0.3-0.7,1.7-0.2,2.2c0.7,0.6,1.4,1.2,2.2,1.8c0.2,0.2,0.5,0.5,0.8,0.5C32.6,21.5,34,21.4,35.6,21.4z M127.9,19.1
		c0.2,0,0.4,0,0.6,0c3.5,0,7.1,0,10.6,0c0.6,0,0.8-0.2,0.8-0.8c0-0.2,0-0.4,0-0.6c0-0.6-0.2-0.8-0.8-0.8c-3.7,0-7.4,0-11.1,0
		c-0.6,0-1.1,0-1.7,0.1c-0.9,0.1-1.6,0.4-1.9,1.4c-0.1,0.6-0.2,1.1-0.2,1.7c0,2.3,0,4.5,0.1,6.8c0,0.7,0.3,1.4,1,1.7
		c0.5,0.2,1.1,0.4,1.7,0.4c2.8,0,5.5,0,8.3,0c1.3,0,2.5,0,3.8,0c0.7,0,0.8-0.1,0.8-0.8c0-0.2,0-0.4,0-0.6c0-0.7-0.2-0.9-0.9-0.9
		c-3.5,0-7.1,0-10.6,0c-0.2,0-0.3,0-0.5,0C127.9,24.1,127.9,21.6,127.9,19.1z M85.8,29c1.1,0,2.2,0,3.2,0c0.5,0,0.8-0.1,1.1-0.6
		c1.5-2.6,3.1-5.1,4.6-7.7c0.3-0.4,0.5-0.9,0.8-1.3c0.8,1.4,1.6,2.6,2.3,3.9c1.1,1.8,2.2,3.7,3.2,5.5c0.1,0.1,0.2,0.2,0.3,0.2
		c1.4,0,2.8,0,4.2,0c-0.1-0.1-0.1-0.2-0.2-0.3c-0.5-0.8-1.1-1.6-1.6-2.4c-1.9-2.9-3.9-5.8-5.8-8.7c-0.2-0.4-0.6-0.6-1.1-0.6
		c-0.9,0-1.7,0-2.6,0c-0.5,0-0.9,0.2-1.1,0.6c-2,3.1-4,6.2-6.1,9.3C86.7,27.5,86.3,28.2,85.8,29z M108,19.1c0,3.3,0,6.6,0,9.8
		c1.2,0,2.3,0,3.5,0c0-3.3,0-6.5,0-9.8c0.2,0,0.4,0,0.5,0c1.5,0,2.9,0,4.4,0c1.6,0,1.5-0.4,1.5-1.6c0-0.4-0.3-0.7-0.7-0.7
		c-5,0-9.9,0-14.9,0c-0.1,0-0.3,0-0.4,0.1c-0.5,0.4-0.2,1-0.3,1.5c0,0.2,0.2,0.4,0.4,0.5c0.2,0.1,0.4,0.1,0.6,0.1
		C104.4,19.1,106.2,19.1,108,19.1z M124.9,39.3c0-2.4,0-4.8,0-7.2c-0.8,0-1.5,0-2.2,0c-0.2,0-0.3,0.1-0.4,0.3c-0.6,1-1.2,2-1.8,3.1
		c-0.6-1.1-1.2-2.1-1.9-3.1c0-0.1-0.1-0.2-0.2-0.2c-0.8,0-1.7,0-2.5,0c0,2.4,0,4.8,0,7.1c0.8,0,1.5,0,2.2,0c0-1.3,0-2.6,0-3.9
		c0.4,0.5,0.7,0.9,0.9,1.4c0.2,0.4,0.5,0.7,1.1,0.6c0.3-0.1,0.5,0,0.8,0c0.3,0,0.5-0.1,0.6-0.3c0.3-0.6,0.7-1.1,1-1.7
		c0,0,0.1,0,0.1,0c0,1.3,0,2.6,0,3.9C123.5,39.3,124.2,39.3,124.9,39.3z M119.2,28.9c1.3,0,2.5,0,3.7,0c0-1.1,0-2.1,0-3.1
		c0-2.6,0-5.2,0-7.8c0-0.8-0.4-1.1-1.1-1.1c-0.5,0-1.1,0-1.6,0c-0.6,0-0.9,0.4-0.9,0.9c0,3.6,0,7.2,0,10.8
		C119.2,28.7,119.2,28.8,119.2,28.9z M102.4,36.8c0.4,0,0.8,0,1.2,0c0,0.3,0,0.6,0,0.8c-0.6,0-1.1,0-1.6,0c-0.4,0-0.8-0.4-0.9-0.7
		c-0.1-0.5-0.1-1-0.1-1.4c0-1.1,0.2-1.3,1.1-1.5c0.1,0,0.3,0,0.4,0c0.9,0,1.8,0,2.6,0c0.1,0,0.3-0.1,0.3-0.2c0.1-0.5,0.2-1,0.4-1.6
		c-1.1,0-2.1,0-3.2,0c-0.9,0-1.8,0.1-2.6,0.4c-0.6,0.2-1.1,0.7-1.3,1.3c-0.4,1.1-0.3,2.2-0.1,3.3c0.1,0.4,0.3,0.8,0.5,1.2
		c0.6,0.8,1.6,0.9,2.5,0.9c1.1,0.1,2.2,0,3.4,0c0.6,0,0.9-0.2,0.9-0.8c0.1-1.1,0-2.2,0-3.4c-1,0-2,0-3,0c-0.1,0-0.3,0.1-0.3,0.2
		C102.5,35.8,102.5,36.3,102.4,36.8z M132.8,37.8c-1.5,0-2.9,0-4.3,0c0-0.4,0-0.8,0-1.2c1.2,0,2.3,0,3.4,0c0.1-0.5,0.2-1.1,0.4-1.6
		c-1.3,0-2.5,0-3.8,0c0-0.4,0-0.8,0-1.1c1.2,0,2.3,0,3.5,0c0.1,0,0.4-0.1,0.4-0.1c0.1-0.5,0.2-1,0.4-1.5c-2.2,0-4.4,0-6.6,0
		c0,2.4,0,4.8,0,7.1c2.1,0,4.2,0,6.3,0C132.5,38.8,132.6,38.3,132.8,37.8z M133.5,37.7c-0.1,0.6-0.2,1.1-0.3,1.6
		c1.7,0,3.4,0.1,5.1,0c0.8,0,1.5-0.5,1.7-1.3c0.1-0.4,0-0.8,0-1.2c0-0.7-0.4-1.3-1.1-1.5c-0.8-0.2-1.6-0.4-2.5-0.5
		c-0.3-0.1-0.8-0.1-0.8-0.5c0-0.4,0.4-0.4,0.8-0.4c0.9,0,1.8,0,2.6,0c0.1,0,0.4-0.1,0.4-0.2c0.1-0.5,0.2-0.9,0.3-1.5
		c-1.6,0-3.1,0-4.7,0.2c-0.5,0-1,0.3-1.3,0.6c-0.8,0.6-0.7,1.4-0.6,2.2c0.1,0.8,0.7,1.2,1.5,1.3c0.7,0.2,1.5,0.2,2.2,0.4
		c0.3,0,0.5,0.1,0.5,0.5c0,0.3-0.2,0.4-0.5,0.4c-0.5,0-0.9,0.1-1.4,0.1C134.8,37.8,134.2,37.7,133.5,37.7z M35.7,24.9
		C35.7,24.9,35.7,25,35.7,24.9c0.2,0.3,0.3,0.4,0.5,0.6c1.2,0.9,2.4,1.9,3.6,2.8c0.3,0.3,0.6,0.7,1.1,0.6c1.3,0,2.5,0,3.8,0
		c0.1,0,0.2,0,0.3,0c-0.2-0.2-0.3-0.3-0.5-0.4c-1.4-1.1-2.7-2.1-4.1-3.2c-0.2-0.1-0.4-0.3-0.6-0.3C38.5,24.9,37.1,24.9,35.7,24.9z"
		/>
	<path class="st0" d="M10,32.2c28.8,0,57.6,0,86.4,0c0,0.5,0,0.9,0,1.4c-28.8,0-57.6,0-86.4,0C10,33.2,10,32.7,10,32.2z"/>
	<path class="st0" d="M10,17.3c0.3-0.4,0.8-0.4,1.3-0.4c4,0,8.1,0,12.1,0c0.6,0,1.3,0.1,1.9,0.4c0.7,0.3,1,1,1.1,1.8c0,1,0,2,0,3.1
		c0,1.1-0.7,1.9-1.8,2c-0.8,0.1-1.5,0.2-2.3,0.2c-2.8,0-5.5,0-8.3,0c-0.2,0-0.3,0-0.5,0c0,1.6,0,3.1,0,4.7c-1.2,0-2.3,0-3.5,0
		c0-2.2,0-4.4,0-6.7c0.2-0.1,0.5-0.2,0.7-0.2c1.9,0,3.8,0,5.8,0c1.7,0,3.4,0,5.1,0c0.9,0,1.4-0.2,1.3-1.3c0-0.2,0-0.3,0-0.5
		c0.1-0.9-0.3-1.3-1.3-1.3c-2.3,0-4.5,0-6.8,0c-0.1,0-0.2,0-0.4,0c1,0.8,2,1.6,2.9,2.3c-1.4,0.1-2.7,0.1-4,0.1
		c-0.2,0-0.4-0.1-0.6-0.2c-0.4-0.3-0.7-0.5-1.1-0.8c-0.6-0.5-1.1-1-1.7-1.5C10,18.4,10,17.8,10,17.3z"/>
	<path class="st0" d="M68.7,20.8c0,2.8,0,5.5,0,8.2c-1.1,0-2.2,0-3.3,0c0-0.1,0-0.3,0-0.4c0-3.6,0-7.2,0-10.8c0-0.6,0.3-0.9,0.9-0.9
		c0.6,0,1.2,0,1.8,0c0.3,0,0.6,0.1,0.8,0.3c0.7,0.7,1.3,1.5,2,2.3c0.5,0.5,0.9,1,1.4,1.6c0.9,1,1.7,2,2.6,3c0.4-0.4,0.8-0.8,1.2-1.2
		c0.5-0.6,1.1-1.2,1.6-1.8c1.1-1.3,2.3-2.5,3.4-3.7c0.2-0.3,0.5-0.4,0.9-0.4c0.5,0,1,0,1.6,0c0.7-0.1,1.2,0.4,1.2,1.2
		c0,3.3,0,6.6,0,9.9c0,0.3,0,0.7,0,1c-1.1,0-2.2,0-3.4,0c0-2.6,0-5.3,0-8.1c-0.5,0.5-0.9,0.9-1.3,1.4c-0.6,0.6-1.1,1.3-1.7,1.9
		c-0.9,1-1.7,2-2.6,2.9c-0.3,0.3-0.6,0.7-1,0.5c-0.3-0.1-0.5-0.4-0.8-0.7c-0.5-0.6-1-1.1-1.5-1.7c-0.9-1.1-1.9-2.2-2.8-3.2
		C69.4,21.6,69.1,21.2,68.7,20.8z"/>
	<path class="st0" d="M55,29c-2.1,0-4.3,0-6.4,0c-0.7,0-1.4-0.2-1.8-0.7c-0.2-0.3-0.4-0.8-0.5-1.2c-0.1-0.4-0.1-0.8-0.1-1.1
		c0-2,0-3.9,0-5.9c0-0.5,0.1-1,0.2-1.6c0.2-0.8,0.8-1.4,1.6-1.5c0.4-0.1,0.8-0.1,1.2-0.1c4,0,8.1,0,12.1,0c1.6,0,2.4,0.8,2.4,2.4
		c0,2.4,0,4.9,0,7.3c0,0.4-0.2,0.9-0.4,1.3c-0.4,0.7-1.1,1-1.9,1C59.3,29,57.1,29,55,29z M60.4,19.1c-3.6,0-7.3,0-10.9,0
		c0,2.5,0,5,0,7.5c3.6,0,7.2,0,10.9,0C60.4,24.1,60.4,21.6,60.4,19.1z"/>
	<path class="st0" d="M35.6,21.4c-1.5,0-2.9,0-4.3,0c-0.3,0-0.5-0.3-0.8-0.5c-0.7-0.6-1.5-1.2-2.2-1.8c-0.5-0.5-0.4-1.8,0.2-2.2
		c0.1-0.1,0.3-0.1,0.4-0.1c4.3,0,8.6,0,12.9,0c0.9,0,1.8,0.2,2.3,1.1c0.2,0.3,0.2,0.6,0.3,0.9c0,1,0,2.1,0,3.1
		c0,1.1-0.5,1.9-1.7,2.1c-0.5,0.1-1,0.2-1.5,0.2c-3,0-6.1,0-9.1,0c-0.2,0-0.3,0-0.5,0c0,1.6,0,3.1,0,4.6c-1.2,0-2.3,0-3.5,0
		c0-0.1,0-0.2,0-0.4c0-1.9,0-3.9,0-5.8c0-0.5,0.2-0.6,0.6-0.6c3.6,0,7.3,0,10.9,0c0.3,0,0.5,0,0.8-0.1c0.4-0.1,0.7-0.3,0.6-0.8
		c0-0.4,0-0.7,0-1.1c0.1-0.8-0.2-1.1-1.1-1.1c-1.4,0-2.7,0-4.1,0c-1.1,0-2.1,0-3.3,0C33.5,19.9,34.5,20.6,35.6,21.4z"/>
	<path class="st0" d="M127.9,19.1c0,2.5,0,5,0,7.5c0.2,0,0.3,0,0.5,0c3.5,0,7.1,0,10.6,0c0.7,0,0.9,0.2,0.9,0.9c0,0.2,0,0.4,0,0.6
		c0,0.7-0.1,0.8-0.8,0.8c-1.3,0-2.5,0-3.8,0c-2.8,0-5.5,0-8.3,0c-0.6,0-1.2-0.2-1.7-0.4c-0.7-0.3-1-1-1-1.7
		c-0.1-2.3-0.1-4.5-0.1-6.8c0-0.6,0.1-1.2,0.2-1.7c0.2-1,1-1.3,1.9-1.4c0.6-0.1,1.1-0.1,1.7-0.1c3.7,0,7.4,0,11.1,0
		c0.6,0,0.8,0.1,0.8,0.8c0,0.2,0,0.4,0,0.6c0,0.6-0.2,0.8-0.8,0.8c-3.5,0-7.1,0-10.6,0C128.3,19.1,128.1,19.1,127.9,19.1z"/>
	<path class="st0" d="M85.8,29c0.5-0.8,0.9-1.4,1.4-2.1c2-3.1,4-6.2,6.1-9.3c0.3-0.4,0.6-0.6,1.1-0.6c0.9,0,1.7,0,2.6,0
		c0.5,0,0.8,0.2,1.1,0.6c1.9,2.9,3.9,5.8,5.8,8.7c0.5,0.8,1.1,1.6,1.6,2.4c0.1,0.1,0.1,0.2,0.2,0.3c-1.5,0-2.9,0-4.2,0
		c-0.1,0-0.2-0.1-0.3-0.2c-1.1-1.8-2.2-3.7-3.2-5.5c-0.8-1.3-1.5-2.6-2.3-3.9c-0.3,0.5-0.5,0.9-0.8,1.3c-1.5,2.6-3.1,5.1-4.6,7.7
		C89.8,28.9,89.5,29,89,29C88,28.9,86.9,29,85.8,29z"/>
	<path class="st0" d="M108,19.1c-1.8,0-3.6,0-5.3,0c-0.2,0-0.5,0-0.6-0.1c-0.2-0.1-0.4-0.4-0.4-0.5c0-0.5-0.3-1.1,0.3-1.5
		c0.1-0.1,0.3-0.1,0.4-0.1c5,0,9.9,0,14.9,0c0.4,0,0.7,0.3,0.7,0.7c0,1.2,0.1,1.6-1.5,1.6c-1.5,0-2.9,0-4.4,0c-0.2,0-0.3,0-0.5,0
		c0,3.3,0,6.5,0,9.8c-1.2,0-2.3,0-3.5,0C108,25.7,108,22.4,108,19.1z"/>
	<path class="st0" d="M124.9,39.3c-0.7,0-1.4,0-2.2,0c0-1.3,0-2.6,0-3.9c0,0-0.1,0-0.1,0c-0.3,0.6-0.7,1.1-1,1.7
		c-0.1,0.3-0.3,0.4-0.6,0.3c-0.3,0-0.6,0-0.8,0c-0.5,0.1-0.8-0.2-1.1-0.6c-0.3-0.5-0.6-1-0.9-1.4c0,1.3,0,2.6,0,3.9
		c-0.8,0-1.5,0-2.2,0c0-2.4,0-4.7,0-7.1c0.8,0,1.6,0,2.5,0c0.1,0,0.1,0.1,0.2,0.2c0.6,1,1.2,2.1,1.9,3.1c0.6-1,1.2-2,1.8-3.1
		c0.1-0.2,0.2-0.3,0.4-0.3c0.7,0,1.5,0,2.2,0C124.9,34.5,124.9,36.9,124.9,39.3z"/>
	<path class="st0" d="M119.2,28.9c0-0.1,0-0.2,0-0.3c0-3.6,0-7.2,0-10.8c0-0.6,0.4-0.9,0.9-0.9c0.5,0,1.1,0,1.6,0
		c0.8,0,1.1,0.4,1.1,1.1c0,2.6,0,5.2,0,7.8c0,1,0,2,0,3.1C121.7,28.9,120.4,28.9,119.2,28.9z"/>
	<path class="st0" d="M102.4,36.8c0.1-0.5,0.2-0.9,0.3-1.3c0-0.1,0.2-0.2,0.3-0.2c1,0,2,0,3,0c0,1.1,0,2.3,0,3.4
		c0,0.6-0.4,0.8-0.9,0.8c-1.1,0-2.3,0.1-3.4,0c-0.9-0.1-1.9-0.1-2.5-0.9c-0.3-0.3-0.5-0.8-0.5-1.2c-0.2-1.1-0.2-2.2,0.1-3.3
		c0.2-0.6,0.7-1.1,1.3-1.3c0.8-0.3,1.7-0.4,2.6-0.4c1,0,2.1,0,3.2,0c-0.1,0.6-0.2,1.1-0.4,1.6c0,0.1-0.2,0.2-0.3,0.2
		c-0.9,0-1.8,0-2.6,0c-0.1,0-0.3,0-0.4,0c-0.8,0.2-1,0.5-1.1,1.5c0,0.5,0,1,0.1,1.4c0,0.3,0.5,0.7,0.9,0.7c0.5,0,1.1,0,1.6,0
		c0-0.3,0-0.5,0-0.8C103.2,36.8,102.8,36.8,102.4,36.8z"/>
	<path class="st0" d="M132.8,37.8c-0.1,0.6-0.2,1.1-0.4,1.6c-2.1,0-4.2,0-6.3,0c0-2.4,0-4.7,0-7.1c2.2,0,4.3,0,6.6,0
		c-0.1,0.5-0.2,1-0.4,1.5c0,0.1-0.2,0.1-0.4,0.1c-1.2,0-2.3,0-3.5,0c0,0.4,0,0.7,0,1.1c1.2,0,2.5,0,3.8,0c-0.1,0.6-0.3,1.1-0.4,1.6
		c-1.1,0-2.3,0-3.4,0c0,0.4,0,0.8,0,1.2C129.9,37.8,131.3,37.8,132.8,37.8z"/>
	<path class="st0" d="M115.1,38.9c-0.9-2.1-1.8-4.3-2.7-6.4c-0.1-0.1-0.3-0.3-0.4-0.3c-0.9,0-1.8,0-2.6,0c-1,2.4-2,4.7-3,7.2
		c0.8,0,1.5,0,2.2,0c0.3,0,0.4-0.1,0.4-0.3c0.1-0.3,0.2-0.6,0.3-0.9c0.1-0.1,0.3-0.3,0.4-0.3c0.7,0,1.5,0,2.2,0
		c0.1,0,0.3,0.1,0.4,0.3c0.2,0.4,0.3,0.9,0.5,1.3c0.9,0,1.7,0,2.6,0C115.2,39.1,115.2,39,115.1,38.9z M109.9,36.2
		c0.3-0.7,0.5-1.4,0.8-2.2c0.3,0.7,0.5,1.4,0.8,2.2C111,36.2,110.5,36.2,109.9,36.2z"/>
	<path class="st0" d="M133.5,37.7c0.7,0,1.4,0.1,2,0.1c0.5,0,0.9-0.1,1.4-0.1c0.3,0,0.5-0.1,0.5-0.4c0-0.4-0.2-0.5-0.5-0.5
		c-0.7-0.1-1.5-0.2-2.2-0.4c-0.7-0.2-1.4-0.5-1.5-1.3c-0.1-0.8-0.2-1.7,0.6-2.2c0.4-0.3,0.9-0.5,1.3-0.6c1.5-0.1,3.1-0.1,4.7-0.2
		c-0.1,0.5-0.2,1-0.3,1.5c0,0.1-0.3,0.2-0.4,0.2c-0.9,0-1.8,0-2.6,0c-0.3,0-0.8,0-0.8,0.4c0,0.4,0.4,0.5,0.8,0.5
		c0.8,0.2,1.7,0.3,2.5,0.5c0.7,0.2,1.1,0.8,1.1,1.5c0,0.4,0.1,0.8,0,1.2c-0.2,0.8-0.9,1.3-1.7,1.3c-1.7,0.1-3.3,0-5.1,0
		C133.3,38.8,133.4,38.3,133.5,37.7z"/>
	<path class="st0" d="M35.7,24.9c1.4,0,2.8,0,4.1,0c0.2,0,0.4,0.2,0.6,0.3c1.4,1.1,2.7,2.1,4.1,3.2c0.2,0.1,0.3,0.3,0.5,0.4
		c-0.1,0-0.2,0-0.3,0c-1.3,0-2.5,0-3.8,0c-0.5,0-0.8-0.4-1.1-0.6c-1.2-0.9-2.4-1.9-3.6-2.8C36,25.3,35.9,25.2,35.7,24.9
		C35.7,25,35.7,24.9,35.7,24.9z"/>
</g>
</svg>
