<?xml version="1.0" encoding="UTF-8" standalone="no"?>
<svg
   xmlns:dc="http://purl.org/dc/elements/1.1/"
   xmlns:cc="http://creativecommons.org/ns#"
   xmlns:rdf="http://www.w3.org/1999/02/22-rdf-syntax-ns#"
   xmlns:svg="http://www.w3.org/2000/svg"
   xmlns="http://www.w3.org/2000/svg"
   xmlns:sodipodi="http://sodipodi.sourceforge.net/DTD/sodipodi-0.dtd"
   xmlns:inkscape="http://www.inkscape.org/namespaces/inkscape"
   width="115"
   height="24"
   viewBox="0 0 115 24"
   fill="none"
   version="1.1"
   id="svg937"
   sodipodi:docname="PT logo_100%.svg"
   inkscape:version="1.0.2-2 (e86c870879, 2021-01-15)">
  <metadata
     id="metadata943">
    <rdf:RDF>
      <cc:Work
         rdf:about="">
        <dc:format>image/svg+xml</dc:format>
        <dc:type
           rdf:resource="http://purl.org/dc/dcmitype/StillImage" />
        <dc:title></dc:title>
      </cc:Work>
    </rdf:RDF>
  </metadata>
  <defs
     id="defs941" />
  <sodipodi:namedview
     pagecolor="#ffffff"
     bordercolor="#666666"
     borderopacity="1"
     objecttolerance="10"
     gridtolerance="10"
     guidetolerance="10"
     inkscape:pageopacity="0"
     inkscape:pageshadow="2"
     inkscape:window-width="1366"
     inkscape:window-height="706"
     id="namedview939"
     showgrid="false"
     inkscape:zoom="5.9391304"
     inkscape:cx="57.5"
     inkscape:cy="12"
     inkscape:window-x="-8"
     inkscape:window-y="-8"
     inkscape:window-maximized="1"
     inkscape:current-layer="svg937" />
  <path
     fill-rule="evenodd"
     clip-rule="evenodd"
     d="M13.7892 5.07274C20.9183 2.6782 27.4855 3.49093 29.0619 7.18911L29.0674 7.18365C30.8183 11.2691 25.8001 17.3291 17.8746 20.7273C9.94918 24.1255 2.10009 23.5637 0.349185 19.4837C-1.16718 15.9437 2.38919 10.9091 8.48191 7.43456V4.38547C8.49067 3.87112 8.77417 3.40083 9.22492 3.15292C9.67567 2.905 10.2247 2.91743 10.6637 3.18547L13.7892 5.07274ZM26.1819 8.72729C26.1819 8.68911 26.1819 8.64547 26.1383 8.60184C25.0474 6.06547 20.9128 5.29638 16.1455 6.4582L15.3492 6.00002C17.4334 5.05998 19.7015 4.59779 21.9874 4.64729C24.911 4.86002 26.3401 6.44184 26.1819 8.72729ZM21.9274 14.04C18.8728 17.7437 13.3474 20.3018 9.58918 20.04C5.831 19.7782 5.26919 16.5491 8.32919 12.8509C8.3605 12.8071 8.39721 12.765 8.43414 12.7227L8.43415 12.7227C8.46156 12.6913 8.48909 12.6598 8.51464 12.6273V17.2637C8.48405 17.7659 8.73036 18.2447 9.15674 18.5119C9.58313 18.7791 10.1214 18.792 10.5601 18.5455L21.8183 12C22.19 11.7554 22.4082 11.3356 22.3949 10.8908C22.3815 10.4461 22.1385 10.0401 21.7528 9.8182L17.1983 7.32547C18.319 6.98074 19.4906 6.83129 20.6619 6.88365C24.4146 7.12365 24.9819 10.3637 21.9274 14.04ZM3.70919 16.6746C2.80919 19.6364 4.18919 21.78 7.63646 22.0309C10.6037 22.2382 14.4274 20.9782 17.8637 18.8727L17.4874 19.0364C11.3728 21.6546 5.32373 21.2237 3.97646 18.0764C3.78915 17.6333 3.69805 17.1555 3.70919 16.6746ZM11.6074 5.55274L19.151 10.0746C19.4213 10.2268 19.5913 10.5105 19.598 10.8207C19.6047 11.1309 19.4472 11.4216 19.1837 11.5855L11.5474 16.0091C11.2503 16.1681 10.8908 16.1556 10.6055 15.9763C10.3202 15.797 10.153 15.4785 10.1674 15.1418L10.1455 6.36547C10.1575 6.02338 10.3477 5.71252 10.6469 5.54618C10.9461 5.37985 11.3105 5.38234 11.6074 5.55274Z"
     fill="#2F3675"
     id="path889"
     style="fill:#ffffff" />
  <path
     fill-rule="evenodd"
     clip-rule="evenodd"
     d="M34.1292 6.63274C33.1638 6.74728 32.1547 6.85638 31.0911 6.93274L31.0529 7.52728C31.4259 7.49262 31.8016 7.55461 32.1438 7.70728C32.3447 7.84726 32.4534 8.0856 32.4274 8.3291C32.4224 8.46271 32.4079 8.59578 32.3838 8.72728C32.3511 8.91274 32.3129 9.09274 32.2638 9.27274L29.3947 20.4164C29.2919 21.0412 29.0556 21.6365 28.702 22.1618C28.4261 22.4038 28.0641 22.5238 27.6983 22.4946H27.5947H27.4856V23.2255H34.6965V22.5709C34.2609 22.5799 33.8288 22.4924 33.4311 22.3146C33.2082 22.1507 33.0897 21.8804 33.1201 21.6055C33.1146 21.4228 33.1274 21.2401 33.1583 21.06C33.176 20.8745 33.2145 20.6915 33.2729 20.5146L34.0529 17.7218C34.3449 17.941 34.6711 18.1106 35.0183 18.2236C35.3882 18.3434 35.775 18.4023 36.1638 18.3982C37.1541 18.3962 38.1252 18.1247 38.9729 17.6127C39.9476 17.0056 40.7914 16.2101 41.4547 15.2727C42.1238 14.3889 42.6587 13.4111 43.042 12.3709C43.3947 11.421 43.5792 10.4169 43.5874 9.40365C43.6514 8.46939 43.359 7.54558 42.7692 6.81819C42.1619 6.19139 41.3114 5.86073 40.4401 5.91274C39.6806 5.91771 38.9413 6.1578 38.3238 6.60001C37.4793 7.19978 36.7417 7.93734 36.142 8.78183L36.922 6.20728C36.022 6.37638 35.0947 6.51819 34.1292 6.63274ZM34.6856 14.9073L35.3729 12.5073C35.6628 11.3213 36.1357 10.1877 36.7747 9.14728C37.1004 8.53018 37.7161 8.11968 38.4111 8.05638C38.6811 8.06 38.9304 8.20215 39.0711 8.43274C39.2603 8.72394 39.352 9.06779 39.3329 9.41456C39.2887 10.2199 39.1383 11.0159 38.8856 11.7818C38.5725 12.8343 38.1786 13.8609 37.7074 14.8527C37.3939 15.5346 36.9741 16.1625 36.4638 16.7127C36.1476 17.0861 35.6967 17.3194 35.2092 17.3618C34.9814 17.3732 34.7582 17.2948 34.5874 17.1436C34.4308 16.9824 34.3495 16.7625 34.3638 16.5382C34.3699 16.3197 34.3973 16.1023 34.4456 15.8891C34.5056 15.6055 34.5874 15.2727 34.6856 14.9073Z"
     fill="#2F3675"
     id="path891"
     style="fill:#ffffff" />
  <path
     d="M44.2801 0.812727C45.371 0.730909 46.3856 0.616364 47.3838 0.48C48.3819 0.343636 49.3147 0.190909 50.1819 0L46.2438 14.8855C46.2438 14.9673 46.1892 15.0655 46.1565 15.1964C46.1202 15.3191 46.0964 15.4452 46.0856 15.5727C46.076 15.7183 46.1122 15.8633 46.1892 15.9873C46.2687 16.0855 46.3902 16.1402 46.5165 16.1345C46.7093 16.1074 46.8836 16.0055 47.0019 15.8509C47.4005 15.3849 47.765 14.8909 48.0929 14.3727L48.7256 14.8309C48.117 15.8566 47.3472 16.7775 46.4456 17.5582C45.8154 18.1034 45.015 18.412 44.1819 18.4309C43.5976 18.471 43.0217 18.2744 42.5838 17.8855C42.1932 17.4528 41.9962 16.8795 42.0383 16.2982C42.1549 15.3871 42.3483 14.4875 42.6165 13.6091L42.6547 13.4618L45.2729 3.76909L45.371 3.37091C45.4897 2.97219 45.57 2.56307 45.611 2.14909C45.6274 1.93228 45.5251 1.7236 45.3438 1.60364C45.091 1.46944 44.8056 1.40896 44.5201 1.42909H44.2965L44.2801 0.812727Z"
     fill="#2F3675"
     id="path893"
     style="fill:#ffffff" />
  <path
     fill-rule="evenodd"
     clip-rule="evenodd"
     d="M59.3182 13.6964L61.4291 6.33818L57.6927 6.31636L57.3054 7.78909C57.2311 7.23638 56.96 6.729 56.5418 6.36C56.0827 6.02975 55.5247 5.86618 54.96 5.89636C54.1922 5.91838 53.4422 6.13214 52.7782 6.51818C51.9571 6.98551 51.2197 7.58648 50.5963 8.29636C49.6923 9.26495 48.9699 10.3883 48.4636 11.6127C47.9594 12.7433 47.6886 13.9641 47.6673 15.2018C47.6185 16.0598 47.9174 16.9013 48.4963 17.5364C49.0947 18.1193 49.9094 18.4258 50.7436 18.3818C51.6444 18.3905 52.5233 18.1052 53.2473 17.5691C54.1076 16.9046 54.8161 16.064 55.3254 15.1036C55.2545 15.5018 55.2 15.8291 55.1673 16.08C55.1352 16.2857 55.1188 16.4936 55.1182 16.7018C55.0903 17.1829 55.2928 17.6486 55.6636 17.9564C56.1085 18.2699 56.648 18.4202 57.1909 18.3818C58.0162 18.378 58.8152 18.0911 59.4545 17.5691C60.2958 16.8564 60.9985 15.9948 61.5273 15.0273L60.9163 14.5691C60.8291 14.7164 60.7091 14.8909 60.5454 15.1145C60.0109 15.9 59.5636 16.2927 59.2254 16.2927C59.1087 16.2975 58.9991 16.2364 58.9418 16.1345C58.8649 16.0065 58.8288 15.8581 58.8382 15.7091C58.9469 15.0359 59.1074 14.3721 59.3182 13.7236V13.6964ZM56.4163 7.66909C56.589 7.91802 56.6735 8.21753 56.6563 8.52C56.6194 9.23614 56.4948 9.94505 56.2854 10.6309C56.0121 11.6083 55.675 12.5667 55.2763 13.5C54.9614 14.2482 54.5307 14.9421 54 15.5564C53.6877 15.9745 53.211 16.2387 52.6909 16.2818C52.4181 16.2858 52.1601 16.1578 51.9982 15.9382C51.8153 15.6525 51.7257 15.317 51.7418 14.9782C51.7698 14.1477 51.928 13.3268 52.2109 12.5455C52.5336 11.5466 52.95 10.5805 53.4545 9.66C53.789 9.02413 54.2013 8.43231 54.6818 7.89818C54.9535 7.57222 55.3489 7.3745 55.7727 7.35273C56.0263 7.34557 56.2671 7.46393 56.4163 7.66909Z"
     fill="#2F3675"
     id="path895"
     style="fill:#ffffff" />
  <path
     d="M60.1965 7.35274V6.67638C61.2274 6.56729 62.2693 6.43093 63.3274 6.2782C64.3856 6.12547 64.9638 6.05456 65.0347 6.05456C65.4547 6.05456 66.0111 7.82184 66.6711 11.3727C66.9438 12.7837 67.1674 13.9182 67.342 14.7764C68.1438 13.2327 68.6893 12.1037 68.9783 11.4C69.2163 10.912 69.3659 10.3857 69.4202 9.84547C69.4202 9.58911 69.1693 9.30002 68.6783 8.9182C68.2444 8.65332 67.9673 8.19297 67.9365 7.68547C67.9236 7.19926 68.1226 6.73143 68.482 6.40365C68.8549 6.06859 69.3449 5.89415 69.8456 5.9182C70.3336 5.89174 70.811 6.06731 71.1656 6.40365C71.4952 6.77453 71.6639 7.26111 71.6347 7.75638C71.6347 8.48184 71.2693 9.65456 70.5438 11.2637C69.6663 13.1435 68.6697 14.9653 67.5602 16.7182C66.4905 18.5644 65.1789 20.2594 63.6602 21.7582C62.4929 22.8164 61.3674 23.3455 60.2838 23.3455C59.6854 23.38 59.092 23.2192 58.5929 22.8873C58.1901 22.5964 57.9589 22.1238 57.9765 21.6273C57.9676 21.1669 58.1682 20.7275 58.522 20.4327C58.8947 20.1096 59.3763 19.94 59.8693 19.9582C60.3668 19.9819 60.8465 20.1507 61.2493 20.4437C61.537 20.6743 61.8723 20.8382 62.2311 20.9237C62.5256 20.9237 62.8583 20.6891 63.2347 20.22C63.5837 19.8462 63.7903 19.3616 63.8183 18.8509C63.8105 18.4497 63.7814 18.0491 63.7311 17.6509C63.6711 17.1655 63.5783 16.56 63.4583 15.8673C63.2129 14.3564 62.9565 12.9709 62.7056 11.7327C62.4547 10.4946 62.2202 9.5182 62.0183 8.80365C61.9219 8.3701 61.7361 7.96141 61.4729 7.60365C61.2202 7.39404 60.8943 7.29391 60.5674 7.32547H60.5347C60.4228 7.34249 60.3098 7.35161 60.1965 7.35274Z"
     fill="#2F3675"
     id="path897"
     style="fill:#ffffff" />
  <path
     d="M76.6473 15.0709C75.9937 15.9976 75.2071 16.8229 74.3127 17.52C73.7352 18.0228 73.0094 18.3235 72.2454 18.3764C71.8006 18.3949 71.3687 18.2245 71.0563 17.9073C70.753 17.5598 70.5965 17.108 70.62 16.6473C70.6233 16.4387 70.6434 16.2308 70.68 16.0255C70.7202 15.7698 70.7748 15.5167 70.8436 15.2673L73.0909 6.83455H70.7018L70.9254 6.10909C71.9452 5.89893 72.8883 5.41421 73.6527 4.70728C74.553 3.84903 75.2871 2.832 75.8182 1.70728H76.6309L75.5673 5.94H77.7491L77.5309 6.83455H75.2727L73.0909 14.9782C73.0418 15.1636 73.0036 15.3273 72.9763 15.4745C72.9491 15.6218 72.9382 15.7636 72.9382 15.8782C72.9241 16.1018 72.992 16.3228 73.1291 16.5C73.2668 16.6535 73.4692 16.7325 73.6745 16.7127C74.0593 16.6697 74.4185 16.4987 74.6945 16.2273C75.2397 15.7425 75.74 15.2095 76.1891 14.6345L76.6473 15.0709Z"
     fill="#2F3675"
     id="path899"
     style="fill:#ffffff" />
  <path
     fill-rule="evenodd"
     clip-rule="evenodd"
     d="M78.4965 14.0618C78.5362 13.7675 78.5945 13.476 78.671 13.1891C80.7859 13.1038 82.8525 12.5307 84.7092 11.5146C86.2474 10.6036 87.0219 9.50183 87.0219 8.24183C87.0424 7.59845 86.7445 6.98632 86.2256 6.60546C85.5966 6.17006 84.8403 5.95699 84.0765 6.00001C83.0837 5.99929 82.1027 6.21522 81.2019 6.63274C80.2323 7.10067 79.359 7.74639 78.6274 8.53637C77.8157 9.40621 77.1672 10.415 76.7129 11.5146C76.2594 12.5601 76.0201 13.6859 76.0092 14.8255C75.9483 15.7866 76.2721 16.7324 76.9092 17.4546C77.5806 18.1002 78.4879 18.4414 79.4183 18.3982C80.5929 18.3854 81.7499 18.1115 82.8056 17.5964C84.1429 16.9447 85.3837 16.1114 86.4929 15.12L85.9147 14.2909C85.0029 15.0739 84.0078 15.7544 82.9474 16.32C82.2309 16.7466 81.4272 17.0057 80.5965 17.0782C79.9969 17.1081 79.414 16.8753 79.0001 16.4404C78.5862 16.0056 78.3824 15.4119 78.4419 14.8146C78.4427 14.5627 78.461 14.3112 78.4965 14.0618ZM83.2965 10.9364C81.9841 11.8027 80.4507 12.274 78.8783 12.2946C79.2671 10.8538 79.9903 9.52505 80.9892 8.41637C81.7367 7.55955 82.8089 7.05508 83.9456 7.02546C84.2524 6.99983 84.5572 7.09363 84.7965 7.28728C85.0016 7.50185 85.1066 7.79302 85.0856 8.0891C85.0856 9.15819 84.4965 10.0964 83.2965 10.9364Z"
     fill="#2F3675"
     id="path901"
     style="fill:#ffffff" />
  <path
     d="M95.8202 13.3636L95.7875 14.9618C95.0696 16.0038 94.1404 16.8828 93.0602 17.5418C92.0923 18.1069 90.99 18.4008 89.8693 18.3927C88.7152 18.4382 87.595 17.9968 86.782 17.1764C85.9857 16.3106 85.5727 15.16 85.6366 13.9855C85.6482 12.9566 85.8769 11.9418 86.3075 11.0073C86.7497 9.99023 87.3788 9.06515 88.162 8.28C88.8602 7.56967 89.6878 6.99943 90.6002 6.6C91.4566 6.20936 92.3862 6.00486 93.3275 6C94.1622 5.95791 94.9884 6.18548 95.6838 6.64909C96.2439 7.03725 96.5717 7.68059 96.5566 8.36182C96.5606 8.77194 96.3971 9.16594 96.1038 9.45273C95.8201 9.75036 95.4241 9.91471 95.0129 9.90545C94.7042 9.92225 94.4029 9.80726 94.1838 9.58909C93.9702 9.36714 93.856 9.06785 93.8675 8.76C93.8818 8.46476 93.9699 8.17782 94.1238 7.92545C94.2388 7.74396 94.3235 7.54501 94.3748 7.33636C94.3675 7.17474 94.2645 7.03305 94.1129 6.97636C93.8929 6.87451 93.6514 6.82771 93.4093 6.84C92.7535 6.85313 92.1132 7.04146 91.5548 7.38545C90.9155 7.77235 90.3593 8.28218 89.9184 8.88545C89.3567 9.62993 88.9082 10.4534 88.5875 11.3291C88.2908 12.1383 88.1358 12.9927 88.1293 13.8545C88.0843 14.6647 88.3518 15.4612 88.8766 16.08C89.393 16.6616 90.1333 16.995 90.9111 16.9964C91.6261 16.9499 92.3146 16.7084 92.902 16.2982C94.0731 15.5395 95.0681 14.5389 95.8202 13.3636Z"
     fill="#2F3675"
     id="path903"
     style="fill:#ffffff" />
  <path
     d="M94.3311 18.4037L98.7983 3.01093C98.8254 2.91645 98.8436 2.81967 98.8529 2.72184C98.8605 2.63109 98.8605 2.53986 98.8529 2.44911C98.8684 2.24443 98.7902 2.04377 98.6401 1.90366C98.2514 1.76981 97.8387 1.71962 97.4292 1.75638H96.4365L96.5947 1.0582C97.3653 1.0274 98.1327 0.941731 98.8911 0.801837C99.5783 0.661674 100.253 0.4665 100.909 0.218201H101.717L98.6183 10.8491C99.9516 9.5157 101.413 8.31717 102.982 7.27093C104.307 6.42547 105.36 6.00002 106.151 6.00002C106.482 5.9724 106.81 6.07407 107.067 6.28366C107.283 6.52534 107.391 6.84425 107.367 7.16729C107.363 7.31806 107.343 7.46795 107.307 7.61456C107.275 7.80002 107.226 7.99638 107.166 8.21456L104.913 15.4527C104.875 15.5946 104.837 15.7527 104.804 15.9164C104.776 16.0804 104.761 16.2464 104.76 16.4127C104.765 16.5087 104.811 16.5979 104.886 16.6582C104.967 16.7291 105.066 16.8546 105.175 16.8546C105.517 16.7608 105.832 16.5848 106.091 16.3418C106.541 15.9956 106.952 15.6025 107.318 15.1691L107.777 15.5455C107.13 16.347 106.375 17.0554 105.535 17.6509C104.958 18.0863 104.265 18.3407 103.544 18.3818C103.207 18.4009 102.873 18.3026 102.6 18.1037C102.373 17.9217 102.247 17.6416 102.262 17.3509C102.26 17.2265 102.271 17.1022 102.295 16.98C102.325 16.8369 102.367 16.6964 102.42 16.56L104.727 9.07093C104.764 8.90729 104.791 8.78184 104.809 8.69456C104.817 8.61657 104.817 8.53802 104.809 8.46002C104.82 8.29567 104.756 8.1353 104.635 8.02366C104.497 7.91638 104.324 7.86393 104.149 7.87638C103.622 7.94992 103.121 8.15432 102.693 8.47093C101.904 8.97405 101.156 9.53949 100.457 10.1618C99.8504 10.6542 99.2916 11.202 98.7874 11.7982C98.4501 12.2243 98.1898 12.7061 98.0183 13.2218L96.5456 18.4037C96.3711 18.3764 95.7492 18.36 95.5692 18.3491C95.3892 18.3382 95.6511 18.3491 95.4656 18.3491C95.2801 18.3491 95.0892 18.3491 94.9201 18.3491C94.7511 18.3491 94.522 18.3764 94.3311 18.4037Z"
     fill="#2F3675"
     id="path905"
     style="fill:#ffffff" />
  <path
     d="M67.8 22.6364V22.8382C67.7976 22.9364 67.8124 23.0342 67.8436 23.1273C67.9091 23.3673 68.1163 23.4873 68.4654 23.4873C68.5872 23.4894 68.7086 23.4728 68.8254 23.4382C69.0561 23.3785 69.2118 23.1633 69.1963 22.9255C69.203 22.7497 69.113 22.5844 68.9618 22.4946C68.8331 22.4145 68.6981 22.3452 68.5582 22.2873L68.0945 22.0855C67.9336 22.0112 67.7802 21.9217 67.6363 21.8182C67.3854 21.6618 67.2376 21.3828 67.2491 21.0873C67.2301 20.7758 67.4 20.4834 67.68 20.3455C67.9551 20.2197 68.2558 20.1599 68.5582 20.1709C68.9018 20.1422 69.2453 20.2285 69.5345 20.4164C69.7202 20.6268 69.8057 20.9073 69.7691 21.1855V21.2728H69.1309V21.1855V21C69.0927 20.7164 68.9018 20.58 68.5854 20.5909C68.1491 20.5909 67.9363 20.7546 67.9309 21.0818C67.9309 21.2946 68.0672 21.4637 68.3345 21.5946C68.5036 21.6764 68.6891 21.7582 68.88 21.8455C69.068 21.9105 69.2504 21.9908 69.4254 22.0855C69.7009 22.2643 69.8526 22.5826 69.8182 22.9091C69.8182 23.5637 69.3545 23.8909 68.4491 23.8909C68.1383 23.9142 67.827 23.852 67.5491 23.7109C67.3134 23.5803 67.1626 23.3365 67.1509 23.0673V22.7782V22.6364H67.8Z"
     fill="#2F3675"
     id="path907"
     style="fill:#ffffff" />
  <path
     fill-rule="evenodd"
     clip-rule="evenodd"
     d="M70.3583 20.76C70.2906 20.9694 70.261 21.1892 70.271 21.4091L70.2383 22.5873C70.1988 22.9186 70.2739 23.2536 70.451 23.5364C70.7678 23.8018 71.1812 23.9224 71.591 23.8691C72.3656 23.8691 72.791 23.6291 72.8619 23.1545C72.8912 22.9742 72.9058 22.7918 72.9056 22.6091V21.4091C72.912 21.189 72.8806 20.9695 72.8129 20.76C72.7112 20.5304 72.5104 20.3597 72.2674 20.2964C71.8233 20.1583 71.3478 20.1583 70.9038 20.2964C70.66 20.3582 70.4586 20.5294 70.3583 20.76ZM70.9801 23.1982C70.9226 23.0074 70.9004 22.8078 70.9147 22.6091L70.9038 21.4091C70.8951 21.2984 70.8951 21.1871 70.9038 21.0764C70.9222 20.8759 71.0637 20.7081 71.2583 20.6564C71.3623 20.6229 71.4709 20.6063 71.5801 20.6073C71.8109 20.5751 72.0409 20.6713 72.1801 20.8582C72.2562 21.0294 72.2881 21.2169 72.2729 21.4036V22.6091V23.0127C72.2578 23.205 72.1253 23.3679 71.9401 23.4218C71.8334 23.4676 71.7181 23.4899 71.6019 23.4873C71.4745 23.4861 71.3485 23.4602 71.231 23.4109C71.1247 23.3722 71.0357 23.2967 70.9801 23.1982Z"
     fill="#2F3675"
     id="path909"
     style="fill:#ffffff" />
  <path
     d="M73.5164 20.2473H74.1818V22.6473V22.9636C74.2036 23.3273 74.4164 23.5091 74.82 23.5091C75.2236 23.5091 75.4473 23.3454 75.4854 23.0182C75.4936 22.9019 75.4936 22.7853 75.4854 22.6691V20.2691H76.1291V22.7073C76.1291 22.9036 76.1291 23.0563 76.1291 23.1709C76.1104 23.3302 76.0349 23.4774 75.9164 23.5854C75.2551 24.0237 74.3958 24.0237 73.7345 23.5854C73.6191 23.4713 73.546 23.3212 73.5273 23.16C73.5273 23.0618 73.5273 22.9091 73.5273 22.6963L73.5164 20.2473Z"
     fill="#2F3675"
     id="path911"
     style="fill:#ffffff" />
  <path
     fill-rule="evenodd"
     clip-rule="evenodd"
     d="M78.1909 20.2473H77.8091H76.7891V23.8473H77.4327V22.2109H77.8745C77.9878 22.2108 78.1009 22.2199 78.2127 22.2382C78.435 22.282 78.5965 22.4753 78.6 22.7018V23.04V23.3618C78.6033 23.4463 78.6143 23.5303 78.6327 23.6128L78.6982 23.8418H79.3691C79.3315 23.7472 79.2987 23.6507 79.2709 23.5528C79.2445 23.427 79.2281 23.2993 79.2218 23.1709L79.1945 22.7509C79.1879 22.6391 79.1733 22.5279 79.1509 22.4182C79.122 22.2773 79.0264 22.1593 78.8945 22.1018C78.7426 22.0517 78.585 22.0206 78.4254 22.0091C78.6826 22.0025 78.9302 21.9104 79.1291 21.7473C79.266 21.5763 79.3341 21.3604 79.32 21.1418C79.3412 20.9316 79.2767 20.7217 79.1413 20.5595C79.0058 20.3973 78.8106 20.2966 78.6 20.28C78.4648 20.2574 78.3279 20.2465 78.1909 20.2473ZM77.3836 21.8182V20.6509L77.8745 20.6891C78.0754 20.6739 78.2771 20.7056 78.4636 20.7818C78.6106 20.8655 78.6941 21.0282 78.6763 21.1964C78.6869 21.333 78.6625 21.47 78.6054 21.5946C78.5094 21.7266 78.3593 21.8086 78.1963 21.8182C78.0783 21.8276 77.9598 21.8276 77.8418 21.8182H77.3836Z"
     fill="#2F3675"
     id="path913"
     style="fill:#ffffff" />
  <path
     d="M81.731 21.1963V21.0272C81.731 20.74 81.5491 20.5982 81.1855 20.6018C80.8746 20.6018 80.6782 20.6782 80.5855 20.8254C80.5385 20.8912 80.5102 20.9685 80.5037 21.0491V22.7618C80.4887 22.931 80.5149 23.1013 80.58 23.2582C80.7116 23.4217 80.9167 23.5078 81.1255 23.4872C81.2587 23.4993 81.3912 23.4578 81.4936 23.3717C81.596 23.2857 81.6599 23.1624 81.671 23.0291L81.6982 22.8V22.6745H82.3637V23.0236C82.3566 23.2614 82.2496 23.4851 82.0691 23.64C81.962 23.7303 81.8348 23.7939 81.6982 23.8254C81.5198 23.8697 81.3366 23.8917 81.1528 23.8909C80.988 23.8958 80.8232 23.8812 80.6619 23.8472C80.4225 23.8213 80.2035 23.7005 80.0539 23.5119C79.9042 23.3233 79.8364 23.0826 79.8655 22.8436V21.4091C79.862 21.2629 79.8729 21.1167 79.8982 20.9727C79.9124 20.8241 79.9714 20.6834 80.0673 20.5691C80.3601 20.2928 80.7574 20.1557 81.1582 20.1927C81.8855 20.1927 82.2837 20.4163 82.3528 20.8636C82.3587 20.9581 82.3587 21.0528 82.3528 21.1472V21.2727H81.7091L81.731 21.1963Z"
     fill="#2F3675"
     id="path915"
     style="fill:#ffffff" />
  <path
     d="M82.9092 20.2473H85.0092V20.6509H83.5528V21.8182H84.9165V22.2218H83.5528V23.4545H85.091V23.8636H82.9092V20.2473Z"
     fill="#2F3675"
     id="path917"
     style="fill:#ffffff" />
  <path
     fill-rule="evenodd"
     clip-rule="evenodd"
     d="M86.8147 20.76C86.7498 20.97 86.7203 21.1894 86.7275 21.4091L86.6893 22.5873C86.654 22.9191 86.7308 23.2533 86.9075 23.5364C87.2222 23.8015 87.6339 23.9222 88.042 23.8691C88.822 23.8691 89.2475 23.6291 89.3184 23.1546C89.3456 22.9741 89.3583 22.7917 89.3566 22.6091V21.4091C89.3642 21.1894 89.3347 20.9699 89.2693 20.76C89.1651 20.5323 88.9653 20.3625 88.7238 20.2964C88.5028 20.2288 88.2731 20.1939 88.042 20.1928C87.8108 20.1923 87.5808 20.2272 87.3602 20.2964C87.1172 20.3597 86.9164 20.5304 86.8147 20.76ZM87.442 23.1982C87.3819 23.008 87.3579 22.8082 87.3711 22.6091V21.4091C87.365 21.2983 87.365 21.1872 87.3711 21.0764C87.3872 20.8767 87.5269 20.7087 87.7202 20.6564C87.826 20.6229 87.9365 20.6063 88.0475 20.6073C88.2769 20.5735 88.5061 20.6702 88.642 20.8582C88.7207 21.0286 88.7527 21.2168 88.7347 21.4037V22.6091V23.0128C88.7159 23.2053 88.5821 23.3672 88.3966 23.4218C88.2917 23.4676 88.1782 23.49 88.0638 23.4873C87.9346 23.4867 87.8067 23.4608 87.6875 23.4109C87.5834 23.3707 87.4966 23.2955 87.442 23.1982Z"
     fill="#2F3675"
     id="path919"
     style="fill:#ffffff" />
  <path
     d="M92.0291 20.2473V20.6509H90.6273V21.7854H91.9745V22.1891H90.6273V23.8254H90V20.2473H92.0291Z"
     fill="#2F3675"
     id="path921"
     style="fill:#ffffff" />
  <path
     d="M94.162 22.6364V22.8382C94.1605 22.9359 94.1734 23.0333 94.2002 23.1273C94.2657 23.3673 94.4784 23.4873 94.8275 23.4873C94.9492 23.4886 95.0705 23.472 95.1875 23.4382C95.4182 23.3785 95.5738 23.1632 95.5584 22.9255C95.5627 22.7489 95.4708 22.5838 95.3184 22.4946C95.1917 22.4145 95.0585 22.3451 94.9202 22.2873L94.4511 22.0855C94.2897 22.0173 94.1346 21.9351 93.9875 21.84C93.7395 21.6814 93.5941 21.4032 93.6057 21.1091C93.5867 20.7976 93.7566 20.5052 94.0366 20.3673C94.3088 20.2376 94.6078 20.1741 94.9093 20.1818C95.2547 20.1523 95.6002 20.2386 95.8911 20.4273C96.0768 20.6377 96.1623 20.9182 96.1257 21.1964V21.2727H95.482V21.1855V21C95.4457 20.7164 95.2547 20.58 94.9093 20.5909C94.4784 20.5909 94.2657 20.7546 94.2547 21.0818C94.2547 21.2946 94.3911 21.4636 94.6638 21.5946C94.8275 21.6764 95.0184 21.7582 95.2093 21.8455C95.3969 21.9117 95.5792 21.9919 95.7547 22.0855C96.0518 22.2456 96.2317 22.561 96.2184 22.8982C96.2184 23.5527 95.7547 23.88 94.8493 23.88C94.5385 23.9033 94.2272 23.841 93.9493 23.7C93.7138 23.5684 93.5616 23.3257 93.5457 23.0564V22.6364H94.162Z"
     fill="#2F3675"
     id="path923"
     style="fill:#ffffff" />
  <path
     d="M96.6546 20.2473H97.2928V22.9745C97.2928 23.3236 97.5328 23.52 97.9364 23.52C98.3401 23.52 98.5637 23.3563 98.6019 23.0291C98.6019 22.9145 98.6019 22.7945 98.6019 22.68V20.28H99.2728V22.7182C99.2717 22.8731 99.2626 23.0278 99.2455 23.1818C99.2314 23.3412 99.1573 23.4894 99.0383 23.5963C98.7294 23.84 98.3394 23.957 97.9474 23.9236C97.5564 23.9641 97.1651 23.8506 96.8564 23.6073C96.7392 23.4944 96.6657 23.3437 96.6492 23.1818C96.6492 23.0836 96.6492 22.9309 96.6492 22.7182L96.6546 20.2473Z"
     fill="#2F3675"
     id="path925"
     style="fill:#ffffff" />
  <path
     d="M101.771 21.1964V21.0273C101.771 20.7382 101.575 20.5964 101.226 20.6018C101.002 20.5688 100.777 20.6533 100.631 20.8255C100.583 20.8909 100.553 20.9681 100.544 21.0491V22.7618C100.532 22.9314 100.56 23.1014 100.626 23.2582C100.757 23.4225 100.962 23.5089 101.171 23.4873C101.309 23.5073 101.45 23.4695 101.559 23.3828C101.668 23.2961 101.737 23.1682 101.749 23.0291L101.777 22.8V22.6745H102.42V22.8V23.0236C102.417 23.2612 102.312 23.4858 102.131 23.64C102.024 23.7304 101.897 23.7939 101.76 23.8255C101.582 23.8694 101.399 23.8914 101.215 23.8909C101.05 23.8963 100.885 23.8817 100.724 23.8473C100.484 23.8213 100.265 23.7005 100.116 23.5119C99.9662 23.3233 99.8983 23.0826 99.9274 22.8436V21.4091C99.9132 21.264 99.9132 21.1178 99.9274 20.9727C99.9435 20.8236 100.004 20.6829 100.102 20.5691C100.394 20.291 100.792 20.1536 101.193 20.1927C101.929 20.1927 102.333 20.4218 102.387 20.8636C102.387 20.9509 102.387 21.0436 102.387 21.1473V21.2727H101.744L101.771 21.1964Z"
     fill="#2F3675"
     id="path927"
     style="fill:#ffffff" />
  <path
     d="M104.869 21.1964V21.0273C104.869 20.7382 104.678 20.5964 104.324 20.6018C104.1 20.5688 103.875 20.6533 103.729 20.8255C103.678 20.8888 103.649 20.9675 103.647 21.0491V21.3437V22.7618C103.636 22.9314 103.664 23.1014 103.729 23.2582C103.86 23.4225 104.066 23.5089 104.275 23.4873C104.413 23.5073 104.553 23.4696 104.662 23.3829C104.772 23.2961 104.841 23.1682 104.853 23.0291V22.8V22.6746H105.491V23.0237C105.488 23.2612 105.383 23.4859 105.202 23.64C105.095 23.7304 104.968 23.794 104.831 23.8255C104.653 23.8695 104.469 23.8915 104.286 23.8909C104.121 23.8963 103.956 23.8817 103.795 23.8473C103.555 23.8213 103.336 23.7006 103.187 23.512C103.037 23.3234 102.969 23.0827 102.998 22.8437V21.4091C102.984 21.264 102.984 21.1179 102.998 20.9728C103.014 20.8237 103.075 20.6829 103.173 20.5691C103.465 20.2916 103.863 20.1543 104.264 20.1928C104.991 20.1928 105.389 20.4164 105.458 20.8637C105.458 20.9509 105.458 21.0437 105.458 21.1473V21.2728H104.82L104.869 21.1964Z"
     fill="#2F3675"
     id="path929"
     style="fill:#ffffff" />
  <path
     d="M106.069 20.2473H108.164V20.6509H106.713V21.8182H108.076V22.2218H106.713V23.4545H108.207V23.8636H106.069L106.069 20.2473Z"
     fill="#2F3675"
     id="path931"
     style="fill:#ffffff" />
  <path
     d="M109.151 22.6363V22.8382C109.147 22.936 109.16 23.0338 109.189 23.1272C109.255 23.3672 109.462 23.4872 109.817 23.4872C109.939 23.4944 110.062 23.4834 110.182 23.4545C110.411 23.3929 110.566 23.1789 110.553 22.9418C110.555 22.7658 110.464 22.6018 110.313 22.5109C110.186 22.4319 110.052 22.3626 109.915 22.3036L109.446 22.1018C109.284 22.0348 109.128 21.9526 108.982 21.8563C108.734 21.6978 108.589 21.4196 108.6 21.1254C108.58 20.8136 108.75 20.5204 109.031 20.3836C109.304 20.2577 109.603 20.1979 109.904 20.2091C110.248 20.1795 110.591 20.2659 110.88 20.4545C111.068 20.664 111.155 20.9446 111.12 21.2236V21.2727H110.477V21.1854V21C110.438 20.7163 110.242 20.58 109.931 20.5909C109.498 20.5909 109.28 20.7545 109.277 21.0818C109.277 21.2945 109.413 21.4636 109.68 21.5945C109.849 21.6763 110.04 21.7582 110.253 21.8454C110.43 21.9117 110.601 21.9919 110.766 22.0854C111.066 22.2431 111.248 22.5594 111.235 22.8982C111.235 23.5527 110.771 23.88 109.86 23.88C109.551 23.9034 109.242 23.8411 108.966 23.7C108.729 23.5699 108.576 23.3263 108.562 23.0563V22.7672V22.6363H109.151Z"
     fill="#2F3675"
     id="path933"
     style="fill:#ffffff" />
  <path
     d="M112.124 22.6363V22.8382C112.122 22.9359 112.135 23.0333 112.162 23.1272C112.227 23.3672 112.435 23.4872 112.789 23.4872C112.909 23.489 113.029 23.4724 113.144 23.4382C113.377 23.3806 113.535 23.1648 113.52 22.9254C113.524 22.7488 113.433 22.5838 113.28 22.4945C113.153 22.4144 113.02 22.3451 112.882 22.2872L112.413 22.0854C112.251 22.0184 112.096 21.9362 111.949 21.84C111.699 21.683 111.554 21.4037 111.567 21.1091C111.547 20.7972 111.717 20.504 111.998 20.3672C112.271 20.2413 112.57 20.1815 112.871 20.1927C113.215 20.1631 113.558 20.2495 113.847 20.4382C114.035 20.6477 114.122 20.9282 114.087 21.2072V21.2727H113.455V21.1854V21C113.415 20.7163 113.224 20.58 112.882 20.5909C112.453 20.5909 112.235 20.7545 112.227 21.0818C112.227 21.2945 112.364 21.4636 112.636 21.5945C112.8 21.6763 112.991 21.7582 113.182 21.8454C113.359 21.9117 113.53 21.992 113.695 22.0854C113.998 22.2448 114.182 22.5665 114.164 22.9091C114.164 23.5636 113.7 23.8909 112.789 23.8909C112.48 23.9134 112.171 23.8512 111.895 23.7109C111.658 23.5808 111.505 23.3372 111.491 23.0672V22.7782V22.6363H112.124Z"
     fill="#2F3675"
     id="path935"
     style="fill:#ffffff" />
</svg>
