<svg xmlns="http://www.w3.org/2000/svg" viewBox="0 0 590.36 142.19"><defs><style>.cls-1{fill:#fff;}</style></defs><g id="Layer_2" data-name="Layer 2"><g id="Layer_1-2" data-name="Layer 1"><path class="cls-1" d="M327.48,1.64A8.85,8.85,0,0,0,322.33,0,8.94,8.94,0,0,0,315,3.82L266.67,72.56a9,9,0,0,0,14.68,10.32l48.31-68.75A9,9,0,0,0,327.48,1.64Z"/><path class="cls-1" d="M589.33,112.86,537.73,5.46a9,9,0,1,0-16.17,7.74l51.59,107.42a9,9,0,0,0,16.18-7.76Z"/><path class="cls-1" d="M476.65,44.07a9.49,9.49,0,0,0,.14-1.42V32.52c0-.33-.07-.65-.09-1,0-.06,0-.12,0-.19a31,31,0,0,0-31-31h-22.6a9,9,0,0,0,0,17.94h22.6a13.07,13.07,0,0,1,13,13.06c0,.33.07.64.1,1,0,.06,0,.13,0,.19V42a6.65,6.65,0,0,0-.08.78,13.07,13.07,0,0,1-13,13.06h-22.6a9,9,0,1,0,0,17.94h22.31s.09,0,.14,0,.09,0,.15,0A31,31,0,0,0,476.65,44.07Z"/><path class="cls-1" d="M368.1.36a31,31,0,0,0-31,31,9,9,0,0,0,17.94,0,13.06,13.06,0,1,1,26.11,0,9,9,0,0,0,17.94,0A31,31,0,0,0,368.1.36Z"/><path class="cls-1" d="M390.13,85.78a9,9,0,0,0-9,9,13.06,13.06,0,1,1-26.11,0,9,9,0,0,0-17.94,0,31,31,0,1,0,62,0A9,9,0,0,0,390.13,85.78Z"/><path class="cls-1" d="M31,.36a31,31,0,0,0-31,31,9,9,0,0,0,17.94,0,13.06,13.06,0,1,1,26.11,0,9,9,0,1,0,17.94,0A31,31,0,0,0,31,.36Z"/><path class="cls-1" d="M53,85.78a9,9,0,0,0-9,9,13.06,13.06,0,1,1-26.11,0A9,9,0,0,0,0,94.75a31,31,0,0,0,31,31,32,32,0,0,0,7.16-.86l6.89,12.62a9,9,0,0,0,7.63,4.67h.25a9,9,0,0,0,7.87-13.27l-7.15-13.09A30.82,30.82,0,0,0,62,94.75,9,9,0,0,0,53,85.78Z"/><path class="cls-1" d="M244.2,85.78a9,9,0,0,0-9,9,13.06,13.06,0,1,1-26.11,0,9,9,0,1,0-17.94,0,31,31,0,0,0,62,0A9,9,0,0,0,244.2,85.78Z"/><path class="cls-1" d="M131,85.78a9,9,0,0,0-9,9,13.07,13.07,0,0,1-26.13,0,9,9,0,1,0-17.93,0,31,31,0,1,0,62,0A9,9,0,0,0,131,85.78Z"/><path class="cls-1" d="M222.18.36a31,31,0,0,0-31,31,9,9,0,1,0,17.94,0,13.06,13.06,0,1,1,26.11,0,9,9,0,0,0,18,0A31,31,0,0,0,222.18.36Z"/><path class="cls-1" d="M346.08,45.43c-.52,0-1,0-1.56-.09L376.59,91a14.1,14.1,0,0,1,13.54-10.28c.4,0,.8,0,1.21.06L359.52,35.49A14.07,14.07,0,0,1,346.08,45.43Z"/><path class="cls-1" d="M283,40.49V9.33a9,9,0,0,0-17.94,0V66Z"/><path class="cls-1" d="M200.15,80.68a14.1,14.1,0,0,1,9,3.24V42.18a14,14,0,0,1-17.94,0V83.91A14,14,0,0,1,200.15,80.68Z"/><path class="cls-1" d="M590.36,103.24V9.33a9,9,0,1,0-17.93,0V65.9Z"/><path class="cls-1" d="M423.12,50.74h9V23.4h-9a14,14,0,0,1-8.95-3.22V54A14.1,14.1,0,0,1,423.12,50.74Z"/><path class="cls-1" d="M497.35.36a9,9,0,0,0-9,9V116.76a9,9,0,0,0,17.94,0V9.33A9,9,0,0,0,497.35.36Z"/><path class="cls-1" d="M274,91.78a14,14,0,0,1-8.09-2.55c-.3-.21-.59-.46-.88-.69v28.22a9,9,0,0,0,17.94,0V88.54A14.12,14.12,0,0,1,274,91.78Z"/><path class="cls-1" d="M165.54.36a9,9,0,0,0-9,9V116.76a9,9,0,0,0,18,0V9.33A9,9,0,0,0,165.54.36Z"/><path class="cls-1" d="M304.62,58.64,292.77,75.49l21.43,45.1a9,9,0,0,0,16.21-7.7Z"/><path class="cls-1" d="M520.68,23.14v93.62a9,9,0,0,0,17.93,0V60.49Z"/><path class="cls-1" d="M423.12,78.89a14.14,14.14,0,0,1-8.95-3.21v41.08a9,9,0,0,0,17.94,0V78.89Z"/><path class="cls-1" d="M86.92,80.68a14.12,14.12,0,0,1,9,3.24V9.33a9,9,0,0,0-18,0V83.91A14.06,14.06,0,0,1,86.92,80.68Z"/><path class="cls-1" d="M131,80.68a14,14,0,0,1,9,3.23V9.33a9,9,0,1,0-17.92,0V83.92A14,14,0,0,1,131,80.68Z"/><path class="cls-1" d="M9,80.68a14.1,14.1,0,0,1,9,3.24V42.18A14,14,0,0,1,0,42.2V83.91A14,14,0,0,1,9,80.68Z"/><path class="cls-1" d="M53,45.43a14,14,0,0,1-9-3.25V83.92a14.05,14.05,0,0,1,17.94,0V42.2A14.11,14.11,0,0,1,53,45.43Z"/></g></g></svg>