<svg id="Layer_1" data-name="Layer 1" xmlns="http://www.w3.org/2000/svg" viewBox="0 0 1915.42 475"><defs><style>.cls-1{fill:#fff;}</style></defs><path class="cls-1" d="M320.7,341.8h0A636.08,636.08,0,0,0,92.2,262.5h0A637.53,637.53,0,0,0,46.6,500h0A639.47,639.47,0,0,0,92.1,737.5h0a635.41,635.41,0,0,0,228.5-79.3h0A642.73,642.73,0,0,0,503.1,500,641,641,0,0,0,320.7,341.8Z" transform="translate(-46.6 -262.5)"/><path class="cls-1" d="M162.3,441.8c0-33.2,23.5-46.7,52.2-30l99.1,57.8c28.7,16.7,28.7,44.1,0,60.8l-99.1,57.8c-28.7,16.7-52.2,3.2-52.2-30Z" transform="translate(-46.6 -262.5)"/><path class="cls-1" d="M335.2,500h168A642.73,642.73,0,0,0,320.7,341.8V474.3C330.4,481.9,335.2,491,335.2,500Z" transform="translate(-46.6 -262.5)"/><path class="cls-1" d="M335.2,500c0,9-4.8,18-14.5,25.6V658.2A642.73,642.73,0,0,0,503.2,500Z" transform="translate(-46.6 -262.5)"/><path class="cls-1" d="M176.7,591.2,92.2,737.5a635.41,635.41,0,0,0,228.5-79.3L206.3,592.1C194.7,596.7,184.4,596.2,176.7,591.2Z" transform="translate(-46.6 -262.5)"/><path class="cls-1" d="M163,567.2,46.6,500h0A639.47,639.47,0,0,0,92.1,737.5h0l84.5-146.3C169.6,586.7,164.7,578.5,163,567.2Z" transform="translate(-46.6 -262.5)"/><path class="cls-1" d="M176.6,408.7,92.2,262.5h0A637.53,637.53,0,0,0,46.6,500L163,432.8C164.6,421.5,169.6,413.3,176.6,408.7Z" transform="translate(-46.6 -262.5)"/><path class="cls-1" d="M206.3,407.8l114.4-66A634.75,634.75,0,0,0,92.2,262.5l84.5,146.3C184.4,403.8,194.7,403.2,206.3,407.8Z" transform="translate(-46.6 -262.5)"/><path class="cls-1" d="M214.5,411.8l99.1,57.8a62.87,62.87,0,0,1,7.1,4.8V341.8l-114.4,66A68.45,68.45,0,0,1,214.5,411.8Z" transform="translate(-46.6 -262.5)"/><path class="cls-1" d="M162.3,558.1V441.8a63.72,63.72,0,0,1,.6-9L46.6,500,163,567.2A65.87,65.87,0,0,1,162.3,558.1Z" transform="translate(-46.6 -262.5)"/><path class="cls-1" d="M313.7,530.4l-99.1,57.8a61.45,61.45,0,0,1-8.2,4l114.4,66.1V525.6A73.42,73.42,0,0,1,313.7,530.4Z" transform="translate(-46.6 -262.5)"/><path class="cls-1" d="M145.2,500Z" transform="translate(-46.6 -262.5)"/><path class="cls-1" d="M644.7,518.9v69.8H611.5V410.1H666c12.1,0,22.5,1.3,31.2,3.8s15.8,6,21.4,10.6a40.3,40.3,0,0,1,12.3,16.2,53.92,53.92,0,0,1,4,20.8,52.66,52.66,0,0,1-2.7,17,48.61,48.61,0,0,1-7.7,14.6,52,52,0,0,1-12.3,11.5,66,66,0,0,1-16.7,7.9,34,34,0,0,1,10.9,10.2l44.7,65.9h-30c-5.7,0-9.8-2.2-12.3-6.7l-37.8-57a13.43,13.43,0,0,0-4.6-4.6,16.38,16.38,0,0,0-7.5-1.4Zm0-23.8h20.7a53.65,53.65,0,0,0,16.4-2.3,31.2,31.2,0,0,0,11.5-6.5,26.4,26.4,0,0,0,6.7-9.8,33.5,33.5,0,0,0,2.2-12.5c0-9.1-3-16-9-20.9s-15.1-7.3-27.4-7.3H644.6l.1,59.3Z" transform="translate(-46.6 -262.5)"/><path class="cls-1" d="M840.7,561.9a44.32,44.32,0,0,0,17.2-3.2,34.55,34.55,0,0,0,12.8-9,40.54,40.54,0,0,0,8-14.1,56.59,56.59,0,0,0,2.8-18.5v-107h33.2V517a83.49,83.49,0,0,1-5.1,29.5,65.41,65.41,0,0,1-38,38.6c-9.1,3.7-19.4,5.5-30.9,5.5s-21.9-1.8-31-5.5a68.45,68.45,0,0,1-23.3-15.3,66.07,66.07,0,0,1-14.7-23.3,82.7,82.7,0,0,1-5.1-29.5V410.1h33.2V517a56.59,56.59,0,0,0,2.8,18.5,40.54,40.54,0,0,0,8,14.1,36.88,36.88,0,0,0,12.8,9.1A45.2,45.2,0,0,0,840.7,561.9Z" transform="translate(-46.6 -262.5)"/><path class="cls-1" d="M952.2,588.7V410.1h61.5q17.55,0,30,3.3c8.3,2.2,15.1,5.4,20.4,9.5a37.39,37.39,0,0,1,11.7,14.9,49.59,49.59,0,0,1,3.7,19.8,36.79,36.79,0,0,1-1.9,12,33.58,33.58,0,0,1-5.7,10.7,43.6,43.6,0,0,1-9.9,9.1,59.46,59.46,0,0,1-14.3,6.9q36.75,8.25,36.8,39.8a50.26,50.26,0,0,1-4.3,21,46.42,46.42,0,0,1-12.6,16.6,58.42,58.42,0,0,1-20.4,10.9,90.28,90.28,0,0,1-27.7,4H952.2v.1Zm33.3-101.3h26.4c11.4,0,19.9-2.1,25.8-6.2s8.7-10.7,8.7-19.6c0-9.3-2.6-15.9-7.9-19.9s-13.5-5.9-24.7-5.9H985.5v51.6Zm0,23v52.4h33.6a46.89,46.89,0,0,0,15.6-2.2,28.09,28.09,0,0,0,10.1-5.9,21.64,21.64,0,0,0,5.4-8.6,33,33,0,0,0,1.7-10.5,26.42,26.42,0,0,0-1.9-10.4,20.55,20.55,0,0,0-5.8-7.9,27,27,0,0,0-10.2-5,55.32,55.32,0,0,0-15-1.7l-33.5-.2Z" transform="translate(-46.6 -262.5)"/><path class="cls-1" d="M1189.4,519.5v69.2h-33.1V519.5l-65.1-109.4h29.3a10.53,10.53,0,0,1,6.9,2.1,18.87,18.87,0,0,1,4.3,5.3l32.6,59.6c1.9,3.6,3.6,7,5,10.1s2.7,6.2,3.9,9.3c1.1-3.1,2.3-6.3,3.7-9.4s3-6.5,4.8-10l32.5-59.6a17.38,17.38,0,0,1,4.1-5.1,9.94,9.94,0,0,1,6.9-2.3h29.4Z" transform="translate(-46.6 -262.5)"/><path class="cls-1" d="M1359.8,525.8v62.9h-33.2V410.1h58c11.9,0,22.3,1.4,31,4.2s15.9,6.7,21.6,11.7a46.58,46.58,0,0,1,12.7,18,61.48,61.48,0,0,1,4.1,23,63.38,63.38,0,0,1-4.3,23.8,49.39,49.39,0,0,1-13,18.6,60.68,60.68,0,0,1-21.7,12.1c-8.7,2.9-18.8,4.3-30.4,4.3Zm0-25.9h24.8a50.32,50.32,0,0,0,15.9-2.3,30.52,30.52,0,0,0,11.3-6.5,26.32,26.32,0,0,0,6.7-10.4,39.2,39.2,0,0,0,2.2-13.6,35.83,35.83,0,0,0-2.2-13,25.23,25.23,0,0,0-6.7-9.9,29.61,29.61,0,0,0-11.2-6.2,54.47,54.47,0,0,0-16.1-2.2h-24.8l.1,64.1Z" transform="translate(-46.6 -262.5)"/><path class="cls-1" d="M1515.3,561.3h70.1l-11.9,27.4h-91.4V410.1h33.2V561.3Z" transform="translate(-46.6 -262.5)"/><path class="cls-1" d="M1764.7,588.7H1739a10.49,10.49,0,0,1-7-2.2,13,13,0,0,1-4.1-5.4l-13.3-36.4h-74l-13.3,36.4a12.25,12.25,0,0,1-3.8,5.2,10.37,10.37,0,0,1-7,2.3h-25.9L1660.9,410h33.8Zm-115.6-67.4H1706l-21.7-59.4a96.63,96.63,0,0,1-3.3-9.3c-1.2-3.6-2.3-7.5-3.5-11.7-1.2,4.2-2.3,8.1-3.4,11.7s-2.2,6.8-3.3,9.5Z" transform="translate(-46.6 -262.5)"/><path class="cls-1" d="M1833.5,519.5v69.2h-33.1V519.5l-65.1-109.4h29.3a10.53,10.53,0,0,1,6.9,2.1,18.87,18.87,0,0,1,4.3,5.3l32.6,59.6c1.9,3.6,3.6,7,5,10.1s2.7,6.2,3.9,9.3c1.1-3.1,2.3-6.3,3.7-9.4s3-6.5,4.8-10l32.5-59.6a17.38,17.38,0,0,1,4.1-5.1,9.94,9.94,0,0,1,6.9-2.3h29.4Z" transform="translate(-46.6 -262.5)"/><path class="cls-1" d="M1961.1,428.1h0a24.15,24.15,0,0,0-2.7-6.4,27.9,27.9,0,0,0-4.2-5.4,31.3,31.3,0,0,0-5.4-4.2,24.15,24.15,0,0,0-6.4-2.7,26.7,26.7,0,0,0-14.3,0,24.15,24.15,0,0,0-6.4,2.7,27.9,27.9,0,0,0-5.4,4.2,31.3,31.3,0,0,0-4.2,5.4,24.15,24.15,0,0,0-2.7,6.4,28.3,28.3,0,0,0-1,7.1,23.44,23.44,0,0,0,1,7.1,24.15,24.15,0,0,0,2.7,6.4,27.9,27.9,0,0,0,4.2,5.4,31.3,31.3,0,0,0,5.4,4.2,24.15,24.15,0,0,0,6.4,2.7,28.3,28.3,0,0,0,7.1,1,23.44,23.44,0,0,0,7.1-1,24.15,24.15,0,0,0,6.4-2.7,27.9,27.9,0,0,0,5.4-4.2,31.3,31.3,0,0,0,4.2-5.4,24.15,24.15,0,0,0,2.7-6.4,28.3,28.3,0,0,0,1-7.1A21.33,21.33,0,0,0,1961.1,428.1Zm-46.3,1.3a21.78,21.78,0,0,1,2.1-5.2,21.32,21.32,0,0,1,7.6-7.8,20.86,20.86,0,0,1,16.5-2.2,19.2,19.2,0,0,1,5.1,2.2,23.85,23.85,0,0,1,4.3,3.4,20.26,20.26,0,0,1,3.3,4.4,23.6,23.6,0,0,1,2.1,5.2,22.55,22.55,0,0,1-.8,14.3,22.86,22.86,0,0,1-4.5,6.9,21.49,21.49,0,0,1-6.8,4.6,21.24,21.24,0,0,1-8.3,1.7,20.91,20.91,0,0,1-15-6.3,20.63,20.63,0,0,1-4.5-6.9,22.15,22.15,0,0,1-1.6-8.5A18.74,18.74,0,0,1,1914.8,429.4Z" transform="translate(-46.6 -262.5)"/><path class="cls-1" d="M1942.4,438.5a4.49,4.49,0,0,0-1.3-1.1,8.69,8.69,0,0,0,6.6-8.8,7.93,7.93,0,0,0-3-6.7c-2-1.6-5.2-2.3-9.6-2.3h-11.2V451h7.5V439.6h1.9a2.27,2.27,0,0,1,1.3.3,2,2,0,0,1,.8.8l5,9.2a2.3,2.3,0,0,0,2.2,1.2h7.2l-6.3-10.7A13.87,13.87,0,0,0,1942.4,438.5Zm-2.4-7a3.77,3.77,0,0,1-.9,1.5,3.8,3.8,0,0,1-1.8.9,12.31,12.31,0,0,1-2.9.3h-3.1v-9h3.7a8.8,8.8,0,0,1,2.6.3,3.45,3.45,0,0,1,1.6.8,3.22,3.22,0,0,1,.8,1.4,10.07,10.07,0,0,1,.2,1.9A4.13,4.13,0,0,1,1940,431.5Z" transform="translate(-46.6 -262.5)"/></svg>