<?xml version="1.0" encoding="UTF-8"?>
<svg id="Layer_1" data-name="Layer 1" xmlns="http://www.w3.org/2000/svg" version="1.1" viewBox="0 0 886.9 427.5">
  <defs>
    <style>
      .cls-1 {
        fill: #fff;
        stroke-width: 0px;
      }
    </style>
  </defs>
  <path class="cls-1" d="M501.4,197l-1,6.1c-3.8-4.3-9.6-7.3-18.7-7.3-16.3,0-27.8,12.4-27.8,29.9s11.6,30,27.8,30,14.9-2.9,18.7-7.3l1,6.1h14.4v-57.5h-14.4ZM485,241.9c-9.2,0-15.6-7.2-15.6-16.3s6.4-16,15.6-16,15.6,6.9,15.6,16-6.6,16.3-15.6,16.3Z"/>
  <polygon class="cls-1" points="566.8 208.1 566.8 197 522.4 197 522.4 209.8 549.3 209.8 522.1 243.4 522.1 254.5 568.6 254.5 568.6 241.7 539.7 241.7 566.8 208.1"/>
  <path class="cls-1" d="M617,171.8v32.1c-3.8-4.8-9.8-8.2-19-8.2-16.3,0-27.9,12.4-27.9,29.9s11.6,30,27.9,30,14.8-2.9,18.7-7.3l1,6.1h14.4v-82.7h-15.1ZM601.2,241.9c-9.2,0-15.6-7.2-15.6-16.3s6.4-16,15.6-16,15.6,6.9,15.6,16-6.6,16.3-15.6,16.3Z"/>
  <path class="cls-1" d="M685.5,197l-1,6.1c-3.8-4.3-9.6-7.3-18.7-7.3-16.3,0-27.8,12.4-27.8,29.9s11.6,30,27.8,30,14.9-2.9,18.7-7.3l1,6.1h14.4v-57.5h-14.4ZM669,241.9c-9.2,0-15.6-7.2-15.6-16.3s6.4-16,15.6-16,15.6,6.9,15.6,16-6.6,16.3-15.6,16.3Z"/>
  <path class="cls-1" d="M739.9,195.8c-8.6,0-14.7,3.8-17.7,7.8l-1-6.6h-13.9v57.5h15.3v-32.2c0-8,6-12.3,12.8-12.3s11.9,4.3,11.9,12.3v32.2h15.3v-36.1c0-13.8-9.4-22.6-22.7-22.6h0Z"/>
  <polygon class="cls-1" points="787.8 171.8 783.7 182.6 779.6 171.8 773.7 171.8 773.7 188.8 777.8 188.8 777.8 176.8 777.9 176.8 782.2 188.8 785.3 188.8 789.6 176.8 789.6 176.8 789.6 188.8 793.7 188.8 793.7 171.8 787.8 171.8"/>
  <polygon class="cls-1" points="757.6 175.1 762.6 175.1 762.6 188.8 766.7 188.8 766.7 175.1 771.6 175.1 771.6 171.8 757.6 171.8 757.6 175.1"/>
  <path class="cls-1" d="M325.9,171.8H112.7c-8,0-12,9.7-6.4,15.4l64.2,64.2c5.7,5.7,14.9,5.7,20.6,0l45.1-45.1c5.4-5.4,14.7-1.6,14.7,6.1v32.5c0,9.6,11.6,14.4,18.3,7.6l63.8-63.8c6.2-6.2,1.8-16.9-7-16.9h0Z"/>
  <polygon class="cls-1" points="348.6 171.8 363.7 171.8 363.7 232.6 405.6 171.8 417.7 171.8 417.7 232.6 459.6 171.8 477.2 171.8 419.5 254.5 402.6 254.5 402.6 201.3 365.5 254.5 348.6 254.5 348.6 171.8"/>
</svg>