<?xml version="1.0" encoding="utf-8"?>
<!-- Generator: Adobe Illustrator 24.1.0, SVG Export Plug-In . SVG Version: 6.00 Build 0)  -->
<svg version="1.1" id="Layer_1" xmlns="http://www.w3.org/2000/svg" xmlns:xlink="http://www.w3.org/1999/xlink" x="0px" y="0px"
	 viewBox="0 0 300 100" style="enable-background:new 0 0 300 100;" xml:space="preserve">
<g>
	<defs>
		<path id="SVGID_1_" d="M96.1,59c0-3.6,2.7-5.3,8-5.9v10c-0.7,0.4-1.7,0.5-2.9,0.5C97.9,63.7,96.1,62.2,96.1,59z M286.3,91H14.4
			v-4.2h271.9V91z M87.2,12.6H14.4V8.4h72.8V12.6z M48.2,53.5c0-5.4,1.2-9.4,4.5-9.4c3.4,0,4.5,4,4.5,9.4c0,5.4-1.2,9.5-4.5,9.5
			C49.3,63,48.2,58.9,48.2,53.5z M18.9,32h21.2v5.7h-6.4v30.1h-8.4V37.6h-6.4V32z M52.6,39.1c8.3,0,12.6,6.1,12.6,14.5
			c0,8.5-4.3,14.6-12.6,14.6s-12.6-6.1-12.6-14.6C40.1,45.2,44.3,39.1,52.6,39.1z M69.3,39.7h3v-6l8-2.1v8.1h4.4v5.2h-4.4v14.9
			c0,1.8,1,2.9,2.6,2.9c0.6,0,1.2-0.1,1.7-0.3c0,0.1,0,0.1,0.1,0.2v4.8c-0.9,0.5-2.3,0.8-4.1,0.8c-5.3,0-8.3-3-8.3-8.3V44.8h-3V39.7
			z M88.9,56.9c1.5-5,7.8-6.8,15.2-7.6v-1.3c0-2.7-1.7-3.9-4.8-3.9c-2.6,0-5.4,0.8-7.4,1.7l-1.7-4.8c2.8-1.3,6.7-2.1,10.3-2.1
			c6.8,0,11.1,2.9,11.1,10.2v16.8c-2.4,1.3-6.2,2.1-10.9,2.1c-6.7,0-10.8-2.1-11.9-6.3c0,0-0.4-0.9-0.4-2.5
			C88.6,57.8,88.9,56.9,88.9,56.9z M117.2,26.9h8v40.7h-8V26.9z M21.1,41.8v25.8v4.2h4.2h8.4h4.2v-4.2v-4.3
			c2.7,5.8,7.9,9.1,14.8,9.1c7.7,0,13.3-4.2,15.6-11.1c0.6,6.7,5.4,11,12.4,11c1.7,0,4.1-0.2,6-1.3c0,0,1.6-0.8,2.7-1.6
			c2.8,1.7,6.5,3.1,11.4,3.1c4.8,0,9.1-0.8,12.2-2.2v1.6h4.2h8h4.2v-4.2V26.9v-4.2h-4.2h-8H113v4.2v12.9c-2.6-3.2-6.8-5-12.4-5
			c-3.9,0-16,1.6-16,1.6v-4.9v-5.5l-5.3,1.4l-8,2.1l-3.2,0.8v3.3v1.7h-3v4.2v0.7c-2.9-3.5-7.2-5.5-12.5-5.5c-3.2,0-6,0.7-8.4,2.1v-5
			v-4.2h-4.2H18.9h-4.2V32v5.7v4.2h4.2L21.1,41.8L21.1,41.8z M265.3,53.5c0-5.4,1.2-9.4,4.5-9.4c3.4,0,4.5,4,4.5,9.4
			c0,5.4-1.2,9.5-4.5,9.5C266.5,63,265.3,58.9,265.3,53.5z M197.5,68.2c-3.2,0-6.6-0.8-8.6-2l2.1-5c1.8,1.1,3.8,1.6,5.4,1.6
			c2.3,0,3.8-1.4,3.8-3.1c0-4.8-10.7-3.2-10.7-12c0-5.3,4.4-8.6,9.7-8.6c3.5,0,6.1,0.6,8.5,2l-1.9,4.4c-1.6-1-3.4-1.5-4.8-1.5
			c-2.3,0-3.5,1.3-3.5,3c0,4.6,10.9,3.2,10.9,12C208.5,64.3,204.3,68.2,197.5,68.2z M184.3,66.1c-2.4,1.3-6.2,2.1-10.9,2.1
			c-7.9,0-12.2-3-12.2-8.9c0-6.9,7-9.1,15.6-10v-1.3c0-2.7-1.7-3.9-4.8-3.9c-2.6,0-5.4,0.8-7.4,1.7l-1.7-4.8
			c2.8-1.3,6.7-2.1,10.3-2.1c6.8,0,11.1,2.9,11.1,10.2L184.3,66.1L184.3,66.1z M151.9,61.8c1.7,0,3.1-0.5,4.2-1.2l1.9,5.4
			c-2,1.4-4.5,2.1-7.7,2.1c-9.9,0-14-9.1-14-18.4c0-9.3,4.2-18.4,14-18.4c3.2,0,5.7,0.7,7.7,2.1l-1.8,5.1c-1.2-0.7-2.5-1.2-4.3-1.2
			c-5.3,0-7.1,6.2-7.1,12.3C144.9,55.6,146.9,61.8,151.9,61.8z M217.7,27.8c2.4,0,4.3,1.6,4.3,3.8c0,2.1-1.9,3.9-4.3,3.9
			c-2.4,0-4.3-1.7-4.3-3.9C213.4,29.5,215.3,27.8,217.7,27.8z M221.7,67.7h-8V39.7h8V67.7z M228.2,41.2c3.2-1.4,7-2,11.2-2
			c8.8,0,12.6,3.6,12.6,9.6v18.9h-8v-19c0-3.1-1.3-4.5-4.5-4.5c-1.3,0-2.2,0.2-3.2,0.6v22.9h-8L228.2,41.2L228.2,41.2z M269.8,39.1
			c8.3,0,12.6,6.1,12.6,14.5c0,8.5-4.3,14.6-12.6,14.6s-12.6-6.1-12.6-14.6C257.3,45.2,261.5,39.1,269.8,39.1z M213.7,71.9h8h2.3
			h1.9h2.3h8h4.2h3.5h8.1h4.2v-4.2v-2.2c2.9,4.4,7.6,7,13.6,7c10.2,0,16.8-7.4,16.8-18.8s-6.6-18.7-16.8-18.7
			c-6.7,0-11.8,3.2-14.5,8.6c-1.6-4.1-5.6-8.5-15.8-8.5c-7.4,0-14.3,2.6-14.3,2.6s0.7-2.1,0.7-6c0-4.4-3.5-8-8.2-8s-7.8,3.4-8.1,7.8
			c-0.2,2.9,1,6,1,6c-2.9-1.6-7.2-2.5-11.2-2.5c-5.7,0-10.3,2.7-12.5,6.9c-2.3-4.4-7-6.9-13.7-6.9c-4,0-8.5,0.9-12,2.4l0.9-2.5
			l1.1-3.1l-2.7-1.8c-2.7-1.8-6.1-2.8-10.1-2.8c-10.9,0-18.2,9.1-18.2,22.7c0,13.5,7.4,22.7,18.2,22.7c3.9,0,7.2-1,10.1-2.9l0.9-0.6
			c0.2,0.2,0.4,0.3,0.5,0.4c2.8,2,6.7,3,11.6,3c5.1,0,9.7-0.9,12.8-2.5l0.4-0.2l0.2,0.1c2.7,1.6,6.7,2.6,10.8,2.6
			c4.3,0,8-1.3,10.8-3.6c0.4-0.4,0.8-0.7,1.2-1.2v4.3H213.7L213.7,71.9z M213.6,8.4h72.8v4.2h-72.8V8.4z M176.8,53.2v10
			c-0.7,0.4-1.7,0.5-2.9,0.5c-3.3,0-5.1-1.5-5.1-4.6C168.7,55.4,171.4,53.7,176.8,53.2z"/>
	</defs>
	<use xlink:href="#SVGID_1_"  style="overflow:visible;fill:#DEBB4D;"/>
	<clipPath id="SVGID_2_">
		<use xlink:href="#SVGID_1_"  style="overflow:visible;"/>
	</clipPath>
</g>
</svg>
