<?xml version="1.0" encoding="utf-8"?>
<!-- Generator: Adobe Illustrator 24.1.0, SVG Export Plug-In . SVG Version: 6.00 Build 0)  -->
<svg version="1.1" id="Layer_1" xmlns="http://www.w3.org/2000/svg" xmlns:xlink="http://www.w3.org/1999/xlink" x="0px" y="0px"
	 viewBox="0 0 40 40" style="enable-background:new 0 0 40 40;" xml:space="preserve">
<g>
	<defs>
		<path id="SVGID_1_" d="M16.3,16l3.8-7.7l3.8,7.7l8.5,1.2l-6.1,6l1.4,8.5l-7.6-4l-7.6,4l1.4-8.5l-6.1-6L16.3,16z M10.4,24.6l-1.4,8
			L8.1,38l4.8-2.5l7.2-3.8l7.2,3.8L32,38l-0.9-5.3l-1.4-8l5.8-5.7l3.9-3.8l-5.4-0.8l-8-1.2l-3.6-7.3L20,1.1l-2.4,4.9l-3.6,7.3
			l-8,1.2l-5.4,0.8L4.5,19L10.4,24.6z"/>
	</defs>
	<use xlink:href="#SVGID_1_"  style="overflow:visible;fill:#DEBB4D;"/>
	<clipPath id="SVGID_2_">
		<use xlink:href="#SVGID_1_"  style="overflow:visible;"/>
	</clipPath>
</g>
</svg>
